SplineFontDB: 3.2
FontName: Vazir-Black
FullName: Vazir Black
FamilyName: Vazir Black
Weight: Black
Copyright: Copyright (c) 2003 by Bitstream, Inc. All Rights Reserved.\nDejaVu changes are in public domain\nChanges by Saber Rastikerdar are in public domain.\nNon-Arabic(Latin) glyphs and data in extended version are imported from Roboto font under the Apache License, Version 2.0.
Version: 22.1.0
ItalicAngle: 0
UnderlinePosition: -500
UnderlineWidth: 100
Ascent: 1638
Descent: 410
InvalidEm: 0
LayerCount: 2
Layer: 0 0 "Back" 1
Layer: 1 0 "Fore" 0
PreferredKerning: 4
XUID: [1021 502 1027637223 10668011]
UniqueID: 4063921
UseUniqueID: 1
FSType: 0
OS2Version: 1
OS2_WeightWidthSlopeOnly: 0
OS2_UseTypoMetrics: 1
CreationTime: 1431850356
ModificationTime: 1581930302
PfmFamily: 33
TTFWeight: 900
TTFWidth: 5
LineGap: 0
VLineGap: 0
Panose: 2 11 6 3 3 8 4 2 2 4
OS2TypoAscent: 2100
OS2TypoAOffset: 0
OS2TypoDescent: -1100
OS2TypoDOffset: 0
OS2TypoLinegap: 0
OS2WinAscent: 2100
OS2WinAOffset: 0
OS2WinDescent: 1100
OS2WinDOffset: 0
HheadAscent: 2100
HheadAOffset: 0
HheadDescent: -1100
HheadDOffset: 0
OS2SubXSize: 1331
OS2SubYSize: 1433
OS2SubXOff: 0
OS2SubYOff: 286
OS2SupXSize: 1331
OS2SupYSize: 1433
OS2SupXOff: 0
OS2SupYOff: 983
OS2StrikeYSize: 102
OS2StrikeYPos: 530
OS2CapHeight: 1638
OS2XHeight: 1082
OS2Vendor: '    '
OS2CodePages: 00000041.20080000
OS2UnicodeRanges: 80002003.80000000.00000008.00000000
Lookup: 1 9 0 "Single Substitution 1" { "Single Substitution 1 subtable"  } []
Lookup: 1 9 0 "'fina' Terminal Forms in Arabic lookup 9" { "'fina' Terminal Forms in Arabic lookup 9 subtable"  } ['fina' ('DFLT' <'dflt' > 'arab' <'FAR ' 'KUR ' 'URD ' 'dflt' > ) ]
Lookup: 1 9 0 "'medi' Medial Forms in Arabic lookup 11" { "'medi' Medial Forms in Arabic lookup 11 subtable"  } ['medi' ('DFLT' <'dflt' > 'arab' <'FAR ' 'KUR ' 'URD ' 'dflt' > ) ]

StartChar: exclam
Encoding: 33 33 1
GlifName: exclam
Width: 632
VWidth: 2762
GlyphClass: 2
Flags: HW
LayerCount: 2
Fore
SplineSet
123 194 m 0
 123 299.845703125 209.120117188 388 316 388 c 0
 422.876953125 388 509 299.840820312 509 194 c 0
 509 87.7255859375 422.276367188 1 316 1 c 0
 209.854492188 1 123 84.884765625 123 194 c 0
221 1376 m 1
 415 1376 l 5
 476.610351562 1376 l 5
 458.431640625 492 l 1
 400 492 l 1
 237 492 l 1
 178.629882812 492 l 1
 159.32421875 1376 l 1
 221 1376 l 1
EndSplineSet
EndChar

StartChar: period
Encoding: 46 46 2
GlifName: period
Width: 632
VWidth: 2762
GlyphClass: 2
Flags: HW
LayerCount: 2
Fore
SplineSet
123 194 m 0
 123 299.845703125 209.120117188 388 316 388 c 0
 422.876953125 388 509 299.840820312 509 194 c 0
 509 87.7255859375 422.276367188 1 316 1 c 0
 209.854492188 1 123 84.884765625 123 194 c 0
EndSplineSet
EndChar

StartChar: colon
Encoding: 58 58 3
GlifName: colon
Width: 632
VWidth: 2762
GlyphClass: 2
Flags: HW
LayerCount: 2
Fore
SplineSet
123 814 m 0
 123 919.845703125 209.120117188 1008 316 1008 c 0
 422.876953125 1008 509 919.840820312 509 814 c 0
 509 707.725585938 422.276367188 621 316 621 c 0
 209.854492188 621 123 704.884765625 123 814 c 0
123 194 m 0
 123 299.845703125 209.120117188 388 316 388 c 0
 422.876953125 388 509 299.840820312 509 194 c 0
 509 87.7255859375 422.276367188 1 316 1 c 0
 209.854492188 1 123 84.884765625 123 194 c 0
EndSplineSet
EndChar

StartChar: uni060C
Encoding: 1548 1548 5
GlifName: afii57388
Width: 669
VWidth: 2770
GlyphClass: 2
Flags: HW
LayerCount: 2
Fore
SplineSet
543.486328125 596.71875 m 2
 463.9375 523.98828125 420.186523438 468.545898438 406.00390625 398.259765625 c 1
 502.0703125 375.565429688 536 293.857421875 536 211 c 0
 536 98.0712890625 462.454101562 9 341 9 c 0
 192.56640625 9 123 116.462890625 123 243 c 0
 123 458.69140625 236.5859375 626.948242188 392.276367188 747.448242188 c 2
 429.549804688 776.297851562 l 1
 466.404296875 746.9140625 l 1
 540.404296875 687.9140625 l 1
 595.33203125 644.120117188 l 1
 543.486328125 596.71875 l 2
EndSplineSet
EndChar

StartChar: uni0615
Encoding: 1557 1557 6
GlifName: uni0615
Width: -29
VWidth: 2712
GlyphClass: 4
Flags: HW
AnchorPoint: "Anchor-10" 658.199 1622.46 mark 0
AnchorPoint: "Anchor-9" 658.199 1622.46 mark 0
AnchorPoint: "Anchor-1" 672.366 2445.86 basemark 0
AnchorPoint: "Anchor-1" 658.199 1622.46 mark 0
LayerCount: 2
Fore
SplineSet
915 1918 m 0
 915 1968.93847656 888.909179688 1995 837 1995 c 0
 764.14042444 1995 661.930975472 1922.49460459 536.443359375 1786 c 1
 678 1786 l 2
 787.814453125 1786 915 1820.81054688 915 1918 c 0
536.987304688 1886.68164062 m 1
 645.80973691 2010.47131485 748.336201077 2076 841 2076 c 0
 940.044921875 2076 989 2027.06054688 989 1927 c 0
 989 1785.56835938 882.680664062 1714 668 1714 c 2
 357 1714 l 1
 357 1786 l 1
 465 1786 l 1
 465 2317.97363281 l 1
 537.99609375 2317.02636719 l 1
 536.987304688 1886.68164062 l 1
EndSplineSet
EndChar

StartChar: uni061B
Encoding: 1563 1563 7
GlifName: uni061B_
Width: 669
VWidth: 2770
GlyphClass: 2
Flags: HW
LayerCount: 2
Fore
SplineSet
151 194 m 0
 151 299.845703125 237.120117188 388 344 388 c 0
 450.876953125 388 537 299.840820312 537 194 c 0
 537 87.7255859375 450.276367188 1 344 1 c 0
 237.854492188 1 151 84.884765625 151 194 c 0
543.3828125 1080.62402344 m 6
 463.630859375 1008.04980469 420.182617188 953.079101562 405.948242188 882.2109375 c 5
 502.211914062 859.181640625 536 777.6328125 536 695 c 4
 536 582.071289062 462.454101562 493 341 493 c 4
 192.56640625 493 123 600.462890625 123 727 c 4
 123 942.69140625 236.5859375 1110.94824219 392.276367188 1231.44824219 c 6
 429.549804688 1260.29785156 l 5
 466.404296875 1230.9140625 l 5
 540.404296875 1171.9140625 l 5
 595.461914062 1128.01660156 l 5
 543.3828125 1080.62402344 l 6
EndSplineSet
EndChar

StartChar: uni061F
Encoding: 1567 1567 8
GlifName: uni061F_
Width: 924
VWidth: 2762
GlyphClass: 2
Flags: HW
LayerCount: 2
Fore
SplineSet
332 194 m 0
 332 299.845703125 418.120117188 388 525 388 c 0
 631.876953125 388 718 299.840820312 718 194 c 0
 718 87.7255859375 631.276367188 1 525 1 c 0
 418.854492188 1 332 84.884765625 332 194 c 0
39 971 m 0
 39 1220.80371094 256.203125 1386 469 1386 c 0
 753.68359375 1386 884.918945312 1214.29980469 886 931.229492188 c 2
 886.229492188 921 l 5
 826 921 l 5
 670 921 l 5
 610.436523438 921 l 5
 610.001953125 930.5625 l 2
 609.1328125 1049.6015625 581.401367188 1086 480 1086 c 0
 384.743164062 1086 340 1044.38769531 340 962 c 0
 340 851.638876608 669.639648438 848.62890625 678.240234375 492 c 1
 618 492 l 1
 433 492 l 1
 373.29296875 492 l 1
 364.688476562 768.0546875 39 614.806743663 39 971 c 0
EndSplineSet
EndChar

StartChar: uni0621
Encoding: 1569 1569 9
GlifName: uni0621
Width: 830
VWidth: 2950
GlyphClass: 2
Flags: HW
AnchorPoint: "Anchor-7" 445.326 54.3535 basechar 0
AnchorPoint: "Anchor-10" 441.848 1159.06 basechar 0
LayerCount: 2
Fore
SplineSet
460.846679688 486.106445312 m 1
 538.1015625 503.696289062 616.538085938 521.072265625 692.611328125 538.487304688 c 2
 755.493164062 552.881835938 l 1
 765.302734375 489.123046875 l 1
 791.302734375 320.123046875 l 1
 800.694335938 259.07421875 l 1
 739.3984375 251.458007812 l 2
 582.7734375 231.995117188 377.297851562 154.447265625 126.803710938 17.3662109375 c 2
 38 -31.2314453125 l 1
 38 70 l 1
 38 243 l 1
 38 274.493164062 l 1
 63.919921875 292.381835938 l 2
 100.637695312 317.721679688 136.859375 339.852539062 170.12109375 357.647460938 c 1
 97.9560546875 419.115234375 58 498.736328125 58 594 c 0
 58 832.481445312 235.274414062 988 453 988 c 0
 574.57421875 988 676.46484375 954.158203125 750.068359375 881.78125 c 2
 778.814453125 853.514648438 l 1
 763.506835938 816.217773438 l 1
 708.506835938 682.217773438 l 1
 680.067382812 612.9296875 l 1
 618.654296875 655.802734375 l 2
 575.838867188 685.692382812 528.385742188 701 466 701 c 0
 383.303710938 701 340 661.345703125 340 595 c 0
 340 575.381835938 362.629882812 534.260742188 460.846679688 486.106445312 c 1
EndSplineSet
EndChar

StartChar: uni0627
Encoding: 1575 1575 15
GlifName: uni0627
Width: 465
VWidth: 2950
GlyphClass: 2
Flags: HW
AnchorPoint: "Anchor-10" 224.871 1515.46 basechar 0
AnchorPoint: "Anchor-7" 228.587 -178.365 basechar 0
LayerCount: 2
Fore
SplineSet
148 1386 m 1
 317 1386 l 1
 377 1386 l 5
 377 1326 l 1
 377 61 l 1
 377 1 l 1
 317 1 l 1
 148 1 l 1
 88 1 l 1
 88 61 l 1
 88 1326 l 1
 88 1386 l 1
 148 1386 l 1
EndSplineSet
Substitution2: "'fina' Terminal Forms in Arabic lookup 9 subtable" uniFE8E
EndChar

StartChar: uni062D
Encoding: 1581 1581 21
GlifName: uni062D_
Width: 1347
VWidth: 2950
GlyphClass: 2
Flags: HW
AnchorPoint: "Anchor-7" 690.833 -770.619 basechar 0
AnchorPoint: "Anchor-10" 601.478 1236.07 basechar 0
LayerCount: 2
Fore
SplineSet
650.345703125 620.1640625 m 1
 556.193359375 657.40625 494.296875 676 477 676 c 0
 427.033203125 676 364.895507812 639.41015625 323.57421875 585.438476562 c 2
 296.506835938 550.3515625 l 1
 266.421875 511.353515625 l 1
 222.309570312 533.263671875 l 1
 71.3095703125 608.263671875 l 1
 14.1171875 636.669921875 l 1
 46.029296875 691.983398438 l 1
 61.4296875 718.678710938 l 1
 154.267578125 870.092773438 301.62109375 974 478 974 c 0
 580.040039062 974 687.170898438 929.958007812 807.204101562 871.975585938 c 0
 1012.61816406 771.749023438 1129.59277344 733.215820312 1231.12597656 727.918945312 c 2
 1292.51269531 724.715820312 l 1
 1287.82519531 663.424804688 l 1
 1274.82519531 493.424804688 l 1
 1270.91699219 442.31640625 l 1
 1219.82519531 438.194335938 l 2
 687.260742188 395.229492188 325 166.234375 325 -75 c 0
 325 -278.063476562 454.389648438 -386 798 -386 c 4
 962.560213575 -386 1085.43261719 -344.145507812 1222 -280 c 5
 1237.35449219 -354.580078125 l 5
 1272.35449219 -524.580078125 l 5
 1281.82519531 -570.580078125 l 5
 1127.49609375 -644.290039062 991.703285428 -677 784 -677 c 4
 365.416992188 -677 39 -496.990234375 39 -91 c 0
 39 224.067382812 261.075195312 486.440429688 650.345703125 620.1640625 c 1
EndSplineSet
Substitution2: "'fina' Terminal Forms in Arabic lookup 9 subtable" uniFEA2
Substitution2: "'medi' Medial Forms in Arabic lookup 11 subtable" uniFEA4
Substitution2: "'init' Initial Forms in Arabic lookup 13 subtable" uniFEA3
EndChar

StartChar: uni062F
Encoding: 1583 1583 23
GlifName: uni062F_
Width: 963
VWidth: 2950
GlyphClass: 2
Flags: HW
AnchorPoint: "Anchor-10" 371.137 1229.03 basechar 0
AnchorPoint: "Anchor-7" 432.24 -181.316 basechar 0
LayerCount: 2
Fore
SplineSet
109.901367188 325.807617188 m 2
 191.426757812 309.30859375 259.713867188 301 317 301 c 0
 567.900390625 301 629 360.91015625 629 424 c 0
 629 508.7578125 516.451171875 651.961914062 243.016601562 824.235351562 c 2
 191.087890625 856.952148438 l 1
 224.973632812 908.125976562 l 1
 322.973632812 1056.12597656 l 1
 354.6015625 1103.890625 l 1
 403.77734375 1074.50488281 l 2
 735.884765625 876.049804688 925 664.340820312 925 427 c 0
 925 139.387695312 698.8046875 2 330 2 c 0
 241.711914062 2 159.54296875 11.4501953125 85.4287109375 27.33203125 c 2
 38 37.4951171875 l 1
 38 86 l 1
 38 267 l 1
 38 340.359375 l 1
 109.901367188 325.807617188 l 2
EndSplineSet
Substitution2: "'fina' Terminal Forms in Arabic lookup 9 subtable" uniFEAA
EndChar

StartChar: uni0631
Encoding: 1585 1585 25
GlifName: uni0631
Width: 780
VWidth: 2142
GlyphClass: 2
Flags: HW
AnchorPoint: "Anchor-10" 493.256 908.2 basechar 0
AnchorPoint: "Anchor-7" 322.969 -579.998 basechar 0
LayerCount: 2
Fore
SplineSet
655.651367188 609.426757812 m 2
 712.502929688 468.350585938 742 318.447265625 742 195 c 0
 742 -198.573242188 500.705078125 -443.428710938 61.201171875 -526.9453125 c 2
 12.2001953125 -536.256835938 l 1
 -5.90625 -489.782226562 l 1
 -65.90625 -335.782226562 l 1
 -92.1181640625 -268.504882812 l 1
 -21.1796875 -255.05078125 l 2
 312.245117188 -191.815429688 452.930664062 -44.25 455 190.215820312 c 0
 454.868164062 271.577148438 430.631835938 392.939453125 382.780273438 505.53125 c 2
 357.908203125 564.0546875 l 1
 417.775390625 585.48828125 l 1
 579.775390625 643.48828125 l 1
 634.088867188 662.93359375 l 1
 655.651367188 609.426757812 l 2
EndSplineSet
PairPos2: "'kern' Horizontal Kerning lookup 15-1" uniFEE7 dx=-178 dy=0 dh=-178 dv=0 dx=0 dy=0 dh=0 dv=0
PairPos2: "'kern' Horizontal Kerning lookup 15-2" uniFE8B dx=-178 dy=0 dh=-178 dv=0 dx=0 dy=0 dh=0 dv=0
PairPos2: "'kern' Horizontal Kerning lookup 15-2" uni0640 dx=-178 dy=0 dh=-178 dv=0 dx=0 dy=0 dh=0 dv=0
PairPos2: "'kern' Horizontal Kerning lookup 15-2" uni067E dx=-178 dy=0 dh=-178 dv=0 dx=0 dy=0 dh=0 dv=0
PairPos2: "'kern' Horizontal Kerning lookup 15-2" uni06AF dx=-226 dy=0 dh=-226 dv=0 dx=0 dy=0 dh=0 dv=0
PairPos2: "'kern' Horizontal Kerning lookup 15-2" uniFB92 dx=-226 dy=0 dh=-226 dv=0 dx=0 dy=0 dh=0 dv=0
PairPos2: "'kern' Horizontal Kerning lookup 15-2" uniFB94 dx=-226 dy=0 dh=-226 dv=0 dx=0 dy=0 dh=0 dv=0
PairPos2: "'kern' Horizontal Kerning lookup 15-2" uni0621 dx=-178 dy=0 dh=-178 dv=0 dx=0 dy=0 dh=0 dv=0
PairPos2: "'kern' Horizontal Kerning lookup 15-2" uni0622 dx=-143 dy=0 dh=-143 dv=0 dx=0 dy=0 dh=0 dv=0
PairPos2: "'kern' Horizontal Kerning lookup 15-2" uni0623 dx=-143 dy=0 dh=-143 dv=0 dx=0 dy=0 dh=0 dv=0
PairPos2: "'kern' Horizontal Kerning lookup 15-2" uni0627 dx=-143 dy=0 dh=-143 dv=0 dx=0 dy=0 dh=0 dv=0
PairPos2: "'kern' Horizontal Kerning lookup 15-2" uni0628 dx=-178 dy=0 dh=-178 dv=0 dx=0 dy=0 dh=0 dv=0
PairPos2: "'kern' Horizontal Kerning lookup 15-2" uni0629 dx=-178 dy=0 dh=-178 dv=0 dx=0 dy=0 dh=0 dv=0
PairPos2: "'kern' Horizontal Kerning lookup 15-2" uni062A dx=-178 dy=0 dh=-178 dv=0 dx=0 dy=0 dh=0 dv=0
PairPos2: "'kern' Horizontal Kerning lookup 15-2" uniFE97 dx=-178 dy=0 dh=-178 dv=0 dx=0 dy=0 dh=0 dv=0
PairPos2: "'kern' Horizontal Kerning lookup 15-2" uni062B dx=-178 dy=0 dh=-178 dv=0 dx=0 dy=0 dh=0 dv=0
PairPos2: "'kern' Horizontal Kerning lookup 15-2" uniFE9B dx=-178 dy=0 dh=-178 dv=0 dx=0 dy=0 dh=0 dv=0
PairPos2: "'kern' Horizontal Kerning lookup 15-2" uniFE9F dx=-178 dy=0 dh=-178 dv=0 dx=0 dy=0 dh=0 dv=0
PairPos2: "'kern' Horizontal Kerning lookup 15-2" uniFEA3 dx=-178 dy=0 dh=-178 dv=0 dx=0 dy=0 dh=0 dv=0
PairPos2: "'kern' Horizontal Kerning lookup 15-2" uniFEA7 dx=-178 dy=0 dh=-178 dv=0 dx=0 dy=0 dh=0 dv=0
PairPos2: "'kern' Horizontal Kerning lookup 15-2" uni062F dx=-178 dy=0 dh=-178 dv=0 dx=0 dy=0 dh=0 dv=0
PairPos2: "'kern' Horizontal Kerning lookup 15-2" uni0630 dx=-178 dy=0 dh=-178 dv=0 dx=0 dy=0 dh=0 dv=0
PairPos2: "'kern' Horizontal Kerning lookup 15-2" uni0633 dx=-178 dy=0 dh=-178 dv=0 dx=0 dy=0 dh=0 dv=0
PairPos2: "'kern' Horizontal Kerning lookup 15-2" uniFEB3 dx=-178 dy=0 dh=-178 dv=0 dx=0 dy=0 dh=0 dv=0
PairPos2: "'kern' Horizontal Kerning lookup 15-2" uni0634 dx=-178 dy=0 dh=-178 dv=0 dx=0 dy=0 dh=0 dv=0
PairPos2: "'kern' Horizontal Kerning lookup 15-2" uniFEB7 dx=-178 dy=0 dh=-178 dv=0 dx=0 dy=0 dh=0 dv=0
PairPos2: "'kern' Horizontal Kerning lookup 15-2" uni0635 dx=-178 dy=0 dh=-178 dv=0 dx=0 dy=0 dh=0 dv=0
PairPos2: "'kern' Horizontal Kerning lookup 15-2" uniFEBB dx=-178 dy=0 dh=-178 dv=0 dx=0 dy=0 dh=0 dv=0
PairPos2: "'kern' Horizontal Kerning lookup 15-2" uni0636 dx=-178 dy=0 dh=-178 dv=0 dx=0 dy=0 dh=0 dv=0
PairPos2: "'kern' Horizontal Kerning lookup 15-2" uniFEBF dx=-178 dy=0 dh=-178 dv=0 dx=0 dy=0 dh=0 dv=0
PairPos2: "'kern' Horizontal Kerning lookup 15-2" uni0637 dx=-178 dy=0 dh=-178 dv=0 dx=0 dy=0 dh=0 dv=0
PairPos2: "'kern' Horizontal Kerning lookup 15-2" uniFEC3 dx=-178 dy=0 dh=-178 dv=0 dx=0 dy=0 dh=0 dv=0
PairPos2: "'kern' Horizontal Kerning lookup 15-2" uni0638 dx=-178 dy=0 dh=-178 dv=0 dx=0 dy=0 dh=0 dv=0
PairPos2: "'kern' Horizontal Kerning lookup 15-2" uniFEC7 dx=-178 dy=0 dh=-178 dv=0 dx=0 dy=0 dh=0 dv=0
PairPos2: "'kern' Horizontal Kerning lookup 15-2" uniFECB dx=-178 dy=0 dh=-178 dv=0 dx=0 dy=0 dh=0 dv=0
PairPos2: "'kern' Horizontal Kerning lookup 15-2" uniFECF dx=-178 dy=0 dh=-178 dv=0 dx=0 dy=0 dh=0 dv=0
PairPos2: "'kern' Horizontal Kerning lookup 15-2" uni0641 dx=-178 dy=0 dh=-178 dv=0 dx=0 dy=0 dh=0 dv=0
PairPos2: "'kern' Horizontal Kerning lookup 15-2" uniFED3 dx=-178 dy=0 dh=-178 dv=0 dx=0 dy=0 dh=0 dv=0
PairPos2: "'kern' Horizontal Kerning lookup 15-2" uni0642 dx=-60 dy=0 dh=-60 dv=0 dx=0 dy=0 dh=0 dv=0
PairPos2: "'kern' Horizontal Kerning lookup 15-2" uniFED7 dx=-178 dy=0 dh=-178 dv=0 dx=0 dy=0 dh=0 dv=0
PairPos2: "'kern' Horizontal Kerning lookup 15-2" uni0643 dx=-143 dy=0 dh=-143 dv=0 dx=0 dy=0 dh=0 dv=0
PairPos2: "'kern' Horizontal Kerning lookup 15-2" uniFEDB dx=-226 dy=0 dh=-226 dv=0 dx=0 dy=0 dh=0 dv=0
PairPos2: "'kern' Horizontal Kerning lookup 15-2" uni0644 dx=-60 dy=0 dh=-60 dv=0 dx=0 dy=0 dh=0 dv=0
PairPos2: "'kern' Horizontal Kerning lookup 15-2" uniFEDF dx=-143 dy=0 dh=-143 dv=0 dx=0 dy=0 dh=0 dv=0
PairPos2: "'kern' Horizontal Kerning lookup 15-2" uniFEFB dx=-143 dy=0 dh=-143 dv=0 dx=0 dy=0 dh=0 dv=0
PairPos2: "'kern' Horizontal Kerning lookup 15-2" uni0645 dx=-178 dy=0 dh=-178 dv=0 dx=0 dy=0 dh=0 dv=0
PairPos2: "'kern' Horizontal Kerning lookup 15-2" uniFEE3 dx=-178 dy=0 dh=-178 dv=0 dx=0 dy=0 dh=0 dv=0
PairPos2: "'kern' Horizontal Kerning lookup 15-2" uni0646 dx=-60 dy=0 dh=-60 dv=0 dx=0 dy=0 dh=0 dv=0
PairPos2: "'kern' Horizontal Kerning lookup 15-2" uni0647 dx=-178 dy=0 dh=-178 dv=0 dx=0 dy=0 dh=0 dv=0
PairPos2: "'kern' Horizontal Kerning lookup 15-2" uniFEEB dx=-178 dy=0 dh=-178 dv=0 dx=0 dy=0 dh=0 dv=0
PairPos2: "'kern' Horizontal Kerning lookup 15-2" uni0649 dx=-60 dy=0 dh=-60 dv=0 dx=0 dy=0 dh=0 dv=0
PairPos2: "'kern' Horizontal Kerning lookup 15-2" uni0626 dx=-60 dy=0 dh=-60 dv=0 dx=0 dy=0 dh=0 dv=0
PairPos2: "'kern' Horizontal Kerning lookup 15-2" uni064A dx=-60 dy=0 dh=-60 dv=0 dx=0 dy=0 dh=0 dv=0
PairPos2: "'kern' Horizontal Kerning lookup 15-2" uni06A9 dx=-226 dy=0 dh=-226 dv=0 dx=0 dy=0 dh=0 dv=0
PairPos2: "'kern' Horizontal Kerning lookup 15-2" uniFB8E dx=-226 dy=0 dh=-226 dv=0 dx=0 dy=0 dh=0 dv=0
PairPos2: "'kern' Horizontal Kerning lookup 15-2" uniFB90 dx=-226 dy=0 dh=-226 dv=0 dx=0 dy=0 dh=0 dv=0
PairPos2: "'kern' Horizontal Kerning lookup 15-2" uniFBFE dx=30 dy=0 dh=30 dv=0 dx=0 dy=0 dh=0 dv=0
PairPos2: "'kern' Horizontal Kerning lookup 15-2" uni0631 dx=-30 dy=0 dh=-30 dv=0 dx=0 dy=0 dh=0 dv=0
PairPos2: "'kern' Horizontal Kerning lookup 15-2" uni0632 dx=-30 dy=0 dh=-30 dv=0 dx=0 dy=0 dh=0 dv=0
PairPos2: "'kern' Horizontal Kerning lookup 15-2" uni0624 dx=-30 dy=0 dh=-30 dv=0 dx=0 dy=0 dh=0 dv=0
PairPos2: "'kern' Horizontal Kerning lookup 15-2" uni0648 dx=-30 dy=0 dh=-30 dv=0 dx=0 dy=0 dh=0 dv=0
PairPos2: "'kern' Horizontal Kerning lookup 15-2" uni0698 dx=-40 dy=0 dh=-40 dv=0 dx=0 dy=0 dh=0 dv=0
PairPos2: "'kern' Horizontal Kerning lookup 15-5" uni06C0 dx=-178 dy=0 dh=-178 dv=0 dx=0 dy=0 dh=0 dv=0
Substitution2: "'fina' Terminal Forms in Arabic lookup 9 subtable" uniFEAE
EndChar

StartChar: uni0633
Encoding: 1587 1587 27
GlifName: uni0633
Width: 2456
GlyphClass: 2
Flags: HW
AnchorPoint: "Anchor-10" 1749.53 1008.1 basechar 0
AnchorPoint: "Anchor-7" 710.902 -656.086 basechar 0
LayerCount: 2
Fore
SplineSet
1531 0 m 0
 1482 0 1435 7 1396 21 c 1
 1377 -137 1317 -265 1213 -358 c 0
 1090 -468 923 -520 721 -520 c 0
 281 -520 38 -300 38 116 c 0
 38 265 70 416 133 568 c 2
 155 623 l 1
 211 601 l 1
 366 538 l 1
 420 516 l 1
 399 461 l 2
 352 338 330 224 330 121 c 0
 330 -117 446 -227 728 -227 c 0
 999 -227 1116 -110 1117 160 c 0
 1117 270 1090 384 1033 503 c 2
 1004 564 l 1
 1068 586 l 1
 1237 644 l 1
 1294 664 l 1
 1313 605 l 1
 1372 422 l 2
 1401 333 1441 301 1533 300 c 0
 1630 300 1658 333 1658 449 c 0
 1658 477 1655 536 1648 622 c 2
 1644 680 l 1
 1701 687 l 1
 1866 707 l 1
 1928 714 l 1
 1933 651 l 1
 1949 425 l 2
 1955 337 1985 300 2047 300 c 0
 2088 300 2126 322 2126 462 c 0
 2126 525 2112 609 2084 710 c 2
 2068 768 l 1
 2126 784 l 1
 2294 829 l 1
 2350 844 l 1
 2367 789 l 2
 2401 682 2418 578 2418 477 c 0
 2418 239 2325 1 2048 0 c 0
 1947 0 1861 34 1800 104 c 1
 1727 35 1634 0 1531 0 c 0
EndSplineSet
Substitution2: "'fina' Terminal Forms in Arabic lookup 9 subtable" uniFEB2
Substitution2: "'medi' Medial Forms in Arabic lookup 11 subtable" uniFEB4
Substitution2: "'init' Initial Forms in Arabic lookup 13 subtable" uniFEB3
EndChar

StartChar: uni0635
Encoding: 1589 1589 29
GlifName: uni0635
Width: 2575
VWidth: 2950
GlyphClass: 2
Flags: HW
AnchorPoint: "Anchor-7" 710.902 -656.086 basechar 0
AnchorPoint: "Anchor-10" 2052.53 1188.1 basechar 0
LayerCount: 2
Fore
SplineSet
1752.796875 301 m 2
 2125.00097656 301 2239 382.70703125 2239 473 c 0
 2239 550.2265625 2187.99121094 605 2104 605 c 0
 2003.28320312 605 1870.15625 512.7109375 1718.51660156 300.768554688 c 1
 1752.796875 301 l 2
1117 160.100585938 m 0
 1117 272.676757812 1088.69726562 386.73046875 1032.90136719 503.05078125 c 2
 1003.73339844 563.858398438 l 1
 1067.5234375 585.750976562 l 1
 1236.5234375 643.750976562 l 1
 1294.34667969 663.595703125 l 1
 1313.10546875 605.411132812 l 1
 1372.07910156 422.493164062 l 2
 1381.71875 392.883789062 1392.03808594 369.703125 1400.73925781 354.977539062 c 1
 1619.29101562 709.036132812 1845.21777344 907 2098 907 c 0
 2347.85644531 907 2537 721.879882812 2537 481.893554688 c 0
 2535.81347656 148.583007812 2241.03710938 0 1757 0 c 2
 1706 0 l 2
 1579.0078125 0 1476.42382812 11.14453125 1397.2421875 33.060546875 c 1
 1358.91210938 -334.838867188 1090.90625 -520 721 -520 c 0
 280.41015625 -520 38 -299.8203125 38 116 c 0
 38 264.638671875 69.9482421875 415.587890625 132.50390625 567.806640625 c 2
 155.22265625 623.088867188 l 1
 210.591796875 600.583984375 l 1
 365.591796875 537.583984375 l 1
 419.8203125 515.54296875 l 1
 399.125 460.787109375 l 2
 353.048828125 338.876953125 330 227.215820312 330 121 c 0
 330 -117.349609375 445.8359375 -227 728 -227 c 0
 996.915039062 -227 1116.09570312 -109.502929688 1117 160.100585938 c 0
EndSplineSet
Substitution2: "'fina' Terminal Forms in Arabic lookup 9 subtable" uniFEBA
Substitution2: "'medi' Medial Forms in Arabic lookup 11 subtable" uniFEBC
Substitution2: "'init' Initial Forms in Arabic lookup 13 subtable" uniFEBB
EndChar

StartChar: uni0637
Encoding: 1591 1591 31
GlifName: uni0637
Width: 1471
VWidth: 2950
GlyphClass: 2
Flags: HW
AnchorPoint: "Anchor-10" 476.36 1518.58 basechar 0
AnchorPoint: "Anchor-7" 636.602 -178.453 basechar 0
LayerCount: 2
Fore
SplineSet
648.796875 302 m 2
 1021.00097656 302 1135 383.70703125 1135 474 c 0
 1135 551.2265625 1083.99121094 606 1000 606 c 0
 899.283203125 606 766.15625 513.7109375 614.516601562 301.768554688 c 1
 648.796875 302 l 2
286.62890625 300 m 1
 303.125976562 326.35546875 318.263671875 350.123046875 333 373.385742188 c 1
 333 1326 l 1
 333 1386 l 1
 393 1386 l 1
 562 1386 l 1
 622 1386 l 1
 622 1326 l 1
 622 747.907226562 l 1
 733.25 849.299804688 856.491210938 907 991 907 c 0
 1247.93652344 907 1433 726.599609375 1433 481.786132812 c 0
 1430.62792969 148.51953125 1136.17382812 0 653 0 c 2
 98 0 l 1
 38 0 l 1
 38 60 l 1
 38 240 l 1
 38 300 l 1
 98 300 l 1
 286.62890625 300 l 1
EndSplineSet
Substitution2: "'fina' Terminal Forms in Arabic lookup 9 subtable" uniFEC2
Substitution2: "'medi' Medial Forms in Arabic lookup 11 subtable" uniFEC4
Substitution2: "'init' Initial Forms in Arabic lookup 13 subtable" uniFEC3
EndChar

StartChar: uni0639
Encoding: 1593 1593 33
GlifName: uni0639
Width: 1306
VWidth: 3010
GlyphClass: 2
Flags: HW
AnchorPoint: "Anchor-7" 670.833 -770.619 basechar 0
AnchorPoint: "Anchor-10" 694.478 1424.07 basechar 0
LayerCount: 2
Fore
SplineSet
937.669921875 791.23046875 m 2
 843.1328125 846.616210938 768.002929688 871 715 871 c 0
 622.795898438 871 555 814.600585938 555 730 c 0
 555 667.440429688 579.61328125 636.112304688 629.72265625 574.079101562 c 1
 738.190429688 591.865234375 830.318359375 601 912 601 c 0
 976.583984375 601 1038.67089844 596.834960938 1099.0703125 590.692382812 c 2
 1160.72558594 584.421875 l 1
 1152.46484375 523.001953125 l 1
 1129.46484375 352.001953125 l 1
 1122.14257812 297.568359375 l 1
 1067.27539062 300.061523438 l 2
 1024.60351562 302.001953125 991.8984375 302 971 302 c 0
 502.157226562 302 324 145.822265625 324 -97 c 0
 324 -267.774414062 451.357421875 -382 766 -382 c 0
 921.884743057 -382 1047.54296875 -338.134765625 1182 -276 c 5
 1197.25683594 -350.104492188 l 5
 1232.25683594 -520.104492188 l 5
 1241.61035156 -565.5390625 l 5
 1089.84667969 -640.274414062 954.191490062 -674 755 -674 c 0
 373.872070312 -674 38 -494.213867188 38 -104 c 0
 38 116.288085938 130.4140625 339.018554688 346.075195312 465.6953125 c 1
 287.950195312 553.649414062 262 646.208984375 262 743 c 0
 262 972.416015625 470.151367188 1169 705 1169 c 0
 822.065429688 1169 944.274414062 1123.03613281 1067.86621094 1038.52929688 c 2
 1109.3984375 1010.13085938 l 1
 1088.67285156 964.28515625 l 1
 1022.67285156 818.28515625 l 1
 995.205078125 757.522460938 l 1
 937.669921875 791.23046875 l 2
EndSplineSet
Substitution2: "'fina' Terminal Forms in Arabic lookup 9 subtable" uniFECA
Substitution2: "'medi' Medial Forms in Arabic lookup 11 subtable" uniFECC
Substitution2: "'init' Initial Forms in Arabic lookup 13 subtable" uniFECB
EndChar

StartChar: uni0640
Encoding: 1600 1600 35
GlifName: afii57440
Width: 286
VWidth: 2950
GlyphClass: 2
Flags: HW
AnchorPoint: "Anchor-10" 143.774 930.11 basechar 0
AnchorPoint: "Anchor-7" 147.7 -176.739 basechar 0
LayerCount: 2
Fore
SplineSet
-19 0 m 5
 -19 300 l 5
 305 300 l 1
 305 0 l 1
 -19 0 l 5
EndSplineSet
EndChar

StartChar: uni0643
Encoding: 1603 1603 38
GlifName: uni0643
Width: 1871
VWidth: 2950
GlyphClass: 2
Flags: HW
AnchorPoint: "Anchor-7" 900.268 -166.468 basechar 0
AnchorPoint: "Anchor-10" 948.11 1450.05 basechar 0
LayerCount: 2
Fore
SplineSet
694.731445312 757.62109375 m 2
 755.385742188 750.7734375 807.517578125 747 849 747 c 0
 970.413085938 747 1005 771.176757812 1005 780 c 0
 1005 804.100585938 996.587890625 816.0390625 931.881835938 825.696289062 c 0
 775.197265625 850.495117188 673 940.2890625 673 1089 c 0
 673 1285.66015625 858.499023438 1369.75390625 1117.36230469 1389.8203125 c 2
 1182 1394.83105469 l 1
 1182 1330 l 1
 1182 1205 l 1
 1182 1150.3515625 l 1
 1127.58984375 1145.26074219 l 2
 976.723632812 1131.14453125 924.057617188 1092.83984375 922.0078125 1088.24023438 c 0
 922.002929688 1088.16699219 922 1088.11621094 922 1088 c 0
 922 1085.99609375 918.400390625 1067.97460938 993.892578125 1053.41210938 c 0
 999.688476562 1052.29394531 1005.3828125 1051.31738281 1012.09765625 1050.30664062 c 0
 1162.81738281 1026.75683594 1253 930.568359375 1253 784 c 0
 1253 579.309570312 1057.1796875 499 866 499 c 0
 810.17578125 499 747.416015625 504.3125 679.01171875 514.676757812 c 2
 628 522.40625 l 1
 628 574 l 1
 628 698 l 1
 628 765.155273438 l 1
 694.731445312 757.62109375 l 2
978 300 m 2
 1449.66894531 300 1494 384 1494 530 c 2
 1494 1326 l 5
 1494 1386 l 5
 1554 1386 l 5
 1723 1386 l 5
 1783 1386 l 5
 1783 1326 l 5
 1783 532 l 2
 1783 176 1574.33300781 0 985 0 c 2
 840 0 l 2
 352.82421875 0 38 172.923828125 38 544 c 0
 38 642.030273438 60.0283203125 736.077148438 96.8876953125 821.719726562 c 2
 119.454101562 874.153320312 l 1
 172.946289062 854.224609375 l 1
 325.946289062 797.224609375 l 1
 382.29296875 776.233398438 l 1
 361.1796875 719.932617188 l 2
 342.565429688 670.294921875 333 619.234375 333 569.13671875 c 0
 333.76171875 401.45703125 466.166015625 300 830 300 c 2
 978 300 l 2
EndSplineSet
Substitution2: "'fina' Terminal Forms in Arabic lookup 9 subtable" uniFEDA
Substitution2: "'medi' Medial Forms in Arabic lookup 11 subtable" uniFEDC
Substitution2: "'init' Initial Forms in Arabic lookup 13 subtable" uniFEDB
EndChar

StartChar: uni0644
Encoding: 1604 1604 39
GlifName: uni0644
Width: 1377
VWidth: 2950
GlyphClass: 2
Flags: HW
AnchorPoint: "Anchor-7" 662.902 -648.086 basechar 0
AnchorPoint: "Anchor-10" 654.908 1065.66 basechar 0
LayerCount: 2
Fore
SplineSet
390.844726562 396.060546875 m 2
 348.551757812 288.404296875 329 203.01953125 329 96 c 0
 329 -127.970703125 430.53515625 -227 675 -227 c 0
 896.98046875 -227 997 -123 998 128.068359375 c 2
 1001 1326.13671875 l 5
 1001.13671875 1386 l 5
 1061 1386 l 5
 1229 1386 l 5
 1289.046875 1386 l 5
 1289 1325.953125 l 5
 1288 166.9765625 l 2
 1288 -275 1076.88671875 -520 674 -520 c 0
 263.401367188 -520 38 -304.80859375 38 97 c 0
 38 240.315429688 67.509765625 365.985351562 124.553710938 503.928710938 c 2
 147.34375 559.040039062 l 1
 202.591796875 536.583984375 l 1
 357.591796875 473.583984375 l 1
 412.528320312 451.254882812 l 1
 390.844726562 396.060546875 l 2
EndSplineSet
Substitution2: "'fina' Terminal Forms in Arabic lookup 9 subtable" uniFEDE
Substitution2: "'medi' Medial Forms in Arabic lookup 11 subtable" uniFEE0
Substitution2: "'init' Initial Forms in Arabic lookup 13 subtable" uniFEDF
EndChar

StartChar: uni0645
Encoding: 1605 1605 40
GlifName: uni0645
Width: 1240
VWidth: 2620
GlyphClass: 2
Flags: HW
AnchorPoint: "Anchor-10" 773.952 1080.2 basechar 0
AnchorPoint: "Anchor-7" 724.983 -278.909 basechar 0
LayerCount: 2
Fore
SplineSet
642.651367188 376.4375 m 1
 742.360351562 303.94921875 816.208007812 275.157226562 852.668945312 275.000976562 c 0
 900.438476562 275.798828125 915 285.021484375 915 355 c 0
 915 457.9296875 863.314453125 516 791 516 c 0
 739.168945312 516 689.033203125 482.100585938 642.651367188 376.4375 c 1
52.107421875 -608.583007812 m 2
 45.068359375 -490.934570312 41 -389.545898438 41 -283 c 0
 41 44.6484375 79.755859375 362.607421875 351.071289062 440.135742188 c 1
 452.356445312 679.609375 596.602539062 819.829101562 789.818359375 821 c 0
 1044.86816406 821 1202 606.182617188 1202 367 c 0
 1202 153.6875 1087.12890625 -23 853 -23 c 0
 768.247070312 -23 679.045898438 9.5654296875 578.145507812 67.529296875 c 0
 546.346679688 87.4033203125 516.018554688 103.407226562 478.512695312 122.666015625 c 0
 456.021484375 134.299804688 436.813476562 137.9375 429.266601562 137.999023438 c 0
 398.1796875 137.37890625 334 59.1484375 334 -255 c 0
 334 -384.483398438 338.926757812 -494.615234375 347.7890625 -599.970703125 c 2
 353.258789062 -665 l 1
 288 -665 l 1
 112 -665 l 1
 55.482421875 -665 l 1
 52.107421875 -608.583007812 l 2
EndSplineSet
Substitution2: "'init' Initial Forms in Arabic lookup 13 subtable" uniFEE3
Substitution2: "'medi' Medial Forms in Arabic lookup 11 subtable" uniFEE4
Substitution2: "'fina' Terminal Forms in Arabic lookup 9 subtable" uniFEE2
EndChar

StartChar: uni0647
Encoding: 1607 1607 42
GlifName: uni0647
Width: 942
VWidth: 2950
GlyphClass: 2
Flags: HW
AnchorPoint: "Anchor-10" 419.775 1269.01 basechar 0
AnchorPoint: "Anchor-7" 445.63 -182.576 basechar 0
LayerCount: 2
Fore
SplineSet
458.946289062 625.353515625 m 1
 362.145507812 532.361328125 325 458.963867188 325 409 c 0
 325 334.057617188 352.478515625 300 470 300 c 0
 588.829101562 300 617 334.353515625 617 410 c 0
 617 449.71484375 572.814453125 527.080078125 458.946289062 625.353515625 c 1
414.448242188 1050.40917969 m 2
 726.478515625 821.921875 904 610.921875 904 404 c 0
 904 173.563476562 725.817382812 7.3623046875 471.396484375 4 c 0
 214.047851562 4 38 151.162109375 38 404 c 0
 38 549.538085938 112.771484375 692.102539062 239.673828125 829.28515625 c 1
 200.559570312 863.18359375 l 1
 233.911132812 907.881835938 l 1
 330.911132812 1037.88183594 l 1
 366.471679688 1085.54003906 l 1
 414.448242188 1050.40917969 l 2
EndSplineSet
Substitution2: "'fina' Terminal Forms in Arabic lookup 9 subtable" uniFEEA
Substitution2: "'medi' Medial Forms in Arabic lookup 11 subtable" uniFEEC
Substitution2: "'init' Initial Forms in Arabic lookup 13 subtable" uniFEEB
EndChar

StartChar: uni0648
Encoding: 1608 1608 43
GlifName: uni0648
Width: 880
VWidth: 2142
GlyphClass: 2
Flags: HW
AnchorPoint: "Anchor-7" 415.969 -579.998 basechar 0
AnchorPoint: "Anchor-10" 430.256 1090.2 basechar 0
LayerCount: 2
Fore
SplineSet
523.766601562 2.2265625 m 1
 493.306640625 -0.6328125 473.622070312 -2 457 -2 c 0
 197.637695312 -2 38 119.1796875 38 356 c 0
 38 601.104492188 186.096679688 840 428 840 c 0
 730.006835938 840 842 507.247070312 842 226 c 0
 842 -174.075195312 611.026367188 -444.591796875 179.240234375 -526.9375 c 2
 130.212890625 -536.288085938 l 1
 112.09375 -489.782226562 l 1
 52.09375 -335.782226562 l 1
 25.79296875 -268.276367188 l 1
 97.0166015625 -255.013671875 l 2
 323.712890625 -212.801757812 458.131835938 -118.543945312 523.766601562 2.2265625 c 1
551.991210938 303.912109375 m 1
 531.684570312 489.700195312 477.545898438 535 420 535 c 0
 380.100585938 535 323 473.5859375 323 371 c 0
 323 323.108398438 341.6953125 292 458 292 c 0
 487.677734375 292 519.397460938 296.428710938 551.991210938 303.912109375 c 1
EndSplineSet
Substitution2: "'fina' Terminal Forms in Arabic lookup 9 subtable" uniFEEE
EndChar

StartChar: uni0649
Encoding: 1609 1609 44
GlifName: uni0649
Width: 1477
VWidth: 2950
GlyphClass: 2
Flags: HW
AnchorPoint: "Anchor-7" 716.902 -676.086 basechar 0
AnchorPoint: "Anchor-10" 644.6 946.22 basechar 0
LayerCount: 2
Fore
SplineSet
416.52734375 522.267578125 m 2
 357.520507812 378.13671875 329 252.673828125 329 142 c 0
 329 -96.7900390625 444.487304688 -207.077148438 724.098632812 -208 c 0
 954.662109375 -208 1152.68359375 -104.178710938 1156.91992188 13.3408203125 c 1
 1151.95703125 14.3525390625 1146.10449219 15 1136.77636719 15 c 2
 1002.58984375 16.0009765625 l 2
 813.299804688 17.1767578125 702 130.2109375 702 320 c 0
 702 587.186523438 928.900390625 821.994140625 1260.58691406 821.994140625 c 4
 1299.84277344 821.994140625 1340.48242188 818.836914062 1382.30175781 812.274414062 c 6
 1433 804.318359375 l 5
 1433 753 l 5
 1433 574 l 5
 1433 502.772460938 l 5
 1362.80761719 514.872070312 l 6
 1329.93652344 520.538085938 1298.41113281 523.197265625 1268.67382812 523.197265625 c 4
 1091.1484375 523.197265625 995 430.775390625 995 329 c 0
 995 323.573242188 995.2734375 317.704101562 995.467773438 315.244140625 c 0
 999.208984375 315.04296875 1001.24511719 315 1005 315 c 2
 1144 315 l 2
 1320.8671875 315 1439 226.370117188 1439 58 c 0
 1439 -306.479492188 1125.95117188 -499 719 -499 c 0
 280.178710938 -499 38 -278.584960938 38 139 c 0
 38 291.17578125 76.4150390625 455.884765625 150.750976562 631.399414062 c 2
 173.8125 685.849609375 l 1
 228.591796875 663.583984375 l 1
 383.591796875 600.583984375 l 1
 439.31640625 577.934570312 l 1
 416.52734375 522.267578125 l 2
EndSplineSet
Substitution2: "'fina' Terminal Forms in Arabic lookup 9 subtable" uniFEF0
Substitution2: "'medi' Medial Forms in Arabic lookup 11 subtable" uniFBE9
Substitution2: "'init' Initial Forms in Arabic lookup 13 subtable" uniFBE8
EndChar

StartChar: uni064B
Encoding: 1611 1611 46
GlifName: uni064B_
Width: -26
VWidth: 2316
GlyphClass: 4
Flags: HW
AnchorPoint: "Anchor-10" 583.551 1123.65 mark 0
AnchorPoint: "Anchor-9" 583.551 1123.65 mark 0
AnchorPoint: "Anchor-1" 553.285 1596.25 basemark 0
AnchorPoint: "Anchor-1" 583.551 1123.65 mark 0
LayerCount: 2
Fore
SplineSet
317 1076 m 1
 317 1180 l 1
 317 1186.71537562 l 1
 323.216048115 1189.25644144 l 1
 778.216048115 1375.25644144 l 1
 792 1380.89119979 l 1
 792 1366 l 1
 792 1263 l 1
 792 1256.29826689 l 1
 785.801362686 1253.75069507 l 1
 330.801362686 1066.75069507 l 1
 317 1061.07848667 l 1
 317 1076 l 1
317 1288 m 1
 317 1392 l 1
 317 1398.71537562 l 1
 323.216048115 1401.25644144 l 1
 778.216048115 1587.25644144 l 1
 792 1592.89119979 l 1
 792 1578 l 1
 792 1475 l 1
 792 1468.29826689 l 1
 785.801362686 1465.75069507 l 1
 330.801362686 1278.75069507 l 1
 317 1273.07848667 l 1
 317 1288 l 1
EndSplineSet
EndChar

StartChar: uni064C
Encoding: 1612 1612 47
GlifName: uni064C_
Width: -26
VWidth: 2316
GlyphClass: 4
Flags: HW
AnchorPoint: "Anchor-10" 680.906 1278.67 mark 0
AnchorPoint: "Anchor-9" 680.906 1278.67 mark 0
AnchorPoint: "Anchor-1" 637.739 1852.46 basemark 0
AnchorPoint: "Anchor-1" 680.906 1278.67 mark 0
LayerCount: 2
Fore
SplineSet
479 1629 m 0
 479 1731.76552225 552.4963966 1801 652 1801 c 0
 752.064112453 1801 824 1732.53591765 824 1628 c 0
 824 1591.16085925 815.378868534 1552.27469286 801.031294994 1514.97279472 c 1
 814.093104284 1513.34371792 821.9010554 1513 830 1513 c 2
 840 1513 l 1
 840 1503 l 1
 840 1427 l 1
 840 1416.4875078 l 1
 829.500623831 1417.01247661 l 2
 810.968118627 1417.93910187 788.159123035 1419.87699272 760.066529146 1424.73856031 c 1
 695.878207041 1276.81129477 600.310607473 1200.99202128 471.867219481 1200.99202128 c 0
 332.0720901 1200.99202128 261.019531073 1301.70235437 258.001286606 1489.83959283 c 2
 257.864600947 1498.35966558 l 1
 266.255036765 1499.84657825 l 1
 345.255036765 1513.84657825 l 1
 356.754576749 1515.88447142 l 1
 356.997830567 1504.20828814 l 2
 359.988700673 1360.64652305 400.817629911 1299 473 1299 c 0
 539.4246915 1299 601.936332407 1346.48802742 658.376739308 1442.60817591 c 1
 557.781001019 1479.37677148 479 1530.42799523 479 1629 c 0
703.160444539 1534.93682037 m 1
 715.662442249 1565.48638565 726 1599.53496259 726 1627 c 0
 726 1669.85117324 693.892850854 1701 656 1701 c 0
 610.735108636 1701 579 1671.60733904 579 1625 c 0
 579 1579.55048991 639.93500653 1552.41557778 703.160444539 1534.93682037 c 1
EndSplineSet
EndChar

StartChar: uni064D
Encoding: 1613 1613 48
GlifName: uni064D_
Width: -26
VWidth: 2316
GlyphClass: 4
Flags: HW
AnchorPoint: "Anchor-7" 542.278 32.7109 mark 0
AnchorPoint: "Anchor-6" 542.278 32.7109 mark 0
AnchorPoint: "Anchor-0" 592.022 -407.025 basemark 0
AnchorPoint: "Anchor-0" 542.278 32.7109 mark 0
LayerCount: 2
Fore
SplineSet
322 -446 m 1
 322 -342 l 1
 322 -335.279048682 l 1
 328.223161451 -332.74065388 l 1
 784.223161451 -146.74065388 l 1
 798 -141.121153945 l 1
 798 -156 l 1
 798 -260 l 1
 798 -266.720951318 l 1
 791.776838549 -269.25934612 l 1
 335.776838549 -455.25934612 l 1
 322 -460.878846055 l 1
 322 -446 l 1
322 -234 m 1
 322 -130 l 1
 322 -123.279048682 l 1
 328.223161451 -120.74065388 l 1
 784.223161451 65.2593461202 l 1
 798 70.8788460547 l 1
 798 56 l 1
 798 -48 l 1
 798 -54.7209513179 l 1
 791.776838549 -57.2593461202 l 1
 335.776838549 -243.25934612 l 1
 322 -248.878846055 l 1
 322 -234 l 1
EndSplineSet
EndChar

StartChar: uni064E
Encoding: 1614 1614 49
GlifName: uni064E_
Width: -26
VWidth: 2316
GlyphClass: 4
Flags: HW
AnchorPoint: "Anchor-10" 545.66 1397.63 mark 0
AnchorPoint: "Anchor-9" 545.66 1397.63 mark 0
AnchorPoint: "Anchor-1" 541.396 1651.77 basemark 0
AnchorPoint: "Anchor-1" 545.66 1397.63 mark 0
LayerCount: 2
Fore
SplineSet
286 1349 m 1
 286 1453 l 1
 286 1459.72095132 l 1
 292.223161451 1462.25934612 l 1
 748.223161451 1648.25934612 l 1
 762 1653.87884605 l 1
 762 1639 l 1
 762 1535 l 1
 762 1528.27904868 l 1
 755.776838549 1525.74065388 l 1
 299.776838549 1339.74065388 l 1
 286 1334.12115395 l 1
 286 1349 l 1
EndSplineSet
EndChar

StartChar: uni064F
Encoding: 1615 1615 50
GlifName: uni064F_
Width: -26
VWidth: 2316
GlyphClass: 4
Flags: HW
AnchorPoint: "Anchor-10" 591.295 1359.37 mark 0
AnchorPoint: "Anchor-9" 591.295 1359.37 mark 0
AnchorPoint: "Anchor-1" 542.134 1865.4 basemark 0
AnchorPoint: "Anchor-1" 591.295 1359.37 mark 0
LayerCount: 2
Fore
SplineSet
723 1417 m 2
 696.672586134 1417 671.922819741 1418.79781391 647.515202101 1422.22225113 c 1
 578.69926327 1330.31071922 463.042550993 1281.93241039 300.547955996 1273.01502407 c 2
 290 1272.43617283 l 1
 290 1283 l 1
 290 1361 l 1
 290 1370.12583742 l 1
 299.087788707 1370.95830661 l 2
 417.268496548 1381.78402031 498.640466132 1409.42316493 545.393098832 1449.17847415 c 1
 457.136834754 1471.05216959 370 1531.72501055 370 1626 c 0
 370 1729.20445185 443.731478569 1798 543 1798 c 0
 642.596896992 1798 716 1728.67335246 716 1625 c 0
 716 1588.31930976 707.86260554 1550.64768392 693.984631457 1514.10436758 c 1
 704.474070047 1512.77330843 713.132445597 1512 723 1512 c 2
 733 1512 l 1
 733 1502 l 1
 733 1427 l 1
 733 1417 l 1
 723 1417 l 2
594.160444539 1531.93682037 m 1
 606.662442249 1562.48638565 617 1596.53496259 617 1624 c 0
 617 1667.28374682 585.872275552 1697 547 1697 c 0
 501.150271426 1697 470 1668.84130925 470 1622 c 0
 470 1576.55048991 530.93500653 1549.41557778 594.160444539 1531.93682037 c 1
EndSplineSet
EndChar

StartChar: uni0650
Encoding: 1616 1616 51
GlifName: uni0650
Width: -26
VWidth: 2316
GlyphClass: 4
Flags: HW
AnchorPoint: "Anchor-7" 571.144 -44.8242 mark 0
AnchorPoint: "Anchor-6" 571.144 -44.8242 mark 0
AnchorPoint: "Anchor-0" 619.091 -324.624 basemark 0
AnchorPoint: "Anchor-0" 571.144 -44.8242 mark 0
LayerCount: 2
Fore
SplineSet
333 -346 m 1
 333 -242 l 1
 333 -235.284624383 l 1
 339.216048115 -232.74355856 l 1
 794.216048115 -46.7435585601 l 1
 808 -41.108800207 l 1
 808 -56 l 1
 808 -159 l 1
 808 -165.701733113 l 1
 801.801362686 -168.249304932 l 1
 346.801362686 -355.249304932 l 1
 333 -360.921513333 l 1
 333 -346 l 1
EndSplineSet
EndChar

StartChar: uni0651
Encoding: 1617 1617 52
GlifName: uni0651
Width: -26
VWidth: 2393
GlyphClass: 4
Flags: HW
AnchorPoint: "Anchor-10" 598.801 1453.71 mark 0
AnchorPoint: "Anchor-9" 598.801 1453.71 mark 0
AnchorPoint: "Anchor-1" 570.087 1839.1 basemark 0
AnchorPoint: "Anchor-1" 598.801 1453.71 mark 0
LayerCount: 2
Fore
SplineSet
617.993628543 1758.35691531 m 2
 619.001942224 1730.12413226 619.009174284 1703.24601087 620.972681039 1676.73866968 c 0
 625.43563725 1616.48489178 645.692717839 1584 681 1584 c 0
 720.10630762 1584 738 1609.27219198 738 1675 c 0
 738 1698.52444509 732.143521803 1738.28169094 721.208661625 1790.96783543 c 2
 719.078938974 1801.22922639 l 1
 729.428849513 1802.87580306 l 1
 817.428849513 1816.87580306 l 1
 826.124156558 1818.25914737 l 1
 828.59737407 1809.80898753 l 2
 840.849630812 1767.94711033 847 1726.00080397 847 1685 c 0
 847 1547.71619231 795.184775075 1473.07279343 690.05101908 1472 c 0
 650.90853806 1472 608.452011917 1488.24920552 584.138732222 1516.4690507 c 1
 556.145491191 1447.7049043 489.548898937 1428 432 1428 c 0
 331.587669416 1428 283.873817788 1496.27833027 283.873817788 1616.0779836 c 0
 283.873817788 1653.12839481 288.882749168 1687.57592779 297.352361788 1718.63117406 c 2
 299.730110448 1727.34958581 l 1
 308.643989873 1725.86393924 l 1
 386.643989873 1712.86393924 l 1
 397.086130606 1711.12358245 l 1
 394.754410021 1700.79739129 l 2
 387.949485082 1670.66129513 386 1643.4433728 386 1620 c 0
 386 1567.1092627 405.337258194 1546 444 1546 c 0
 518.825537249 1546 521.4140625 1594.56261462 521.4140625 1719.33203125 c 0
 521.4140625 1731.58877154 521.293624535 1744.38847208 521.002363481 1757.78259706 c 2
 520.780181625 1768 l 1
 531 1768 l 1
 608 1768 l 1
 617.649232662 1768 l 1
 617.993628543 1758.35691531 l 2
EndSplineSet
EndChar

StartChar: uni0652
Encoding: 1618 1618 53
GlifName: uni0652
Width: -26
VWidth: 2316
GlyphClass: 4
Flags: HW
AnchorPoint: "Anchor-10" 595.219 1271.43 mark 0
AnchorPoint: "Anchor-9" 595.219 1271.43 mark 0
AnchorPoint: "Anchor-1" 589.537 1682.66 basemark 0
AnchorPoint: "Anchor-1" 595.219 1271.43 mark 0
LayerCount: 2
Fore
SplineSet
411.07421875 1461.82128906 m 0
 411.07421875 1563.51160247 492.714265489 1645.14941406 594.40234375 1645.14941406 c 0
 696.091760807 1645.14941406 777.731445312 1563.50896161 777.731445312 1461.82128906 c 0
 777.731445312 1410.94672565 759.824452385 1367.08661364 724.48115545 1331.7433167 c 0
 689.137372158 1296.40021929 645.276883757 1278.49316406 594.40234375 1278.49316406 c 0
 492.713027067 1278.49316406 411.07421875 1360.1341316 411.07421875 1461.82128906 c 0
512.667473694 1461.02255928 m 0
 511.878032554 1414.7684852 550.003592534 1377.01256091 596.758670814 1376.92872723 c 0
 643.256461851 1377.01319924 681.027914865 1414.642493 680.851490069 1461.02248286 c 0
 681.028073381 1507.3907048 643.251391912 1544.97884388 596.758599542 1545.11421597 c 0
 550.000874211 1544.97984479 511.88184158 1507.00046918 512.667473694 1461.02255928 c 0
EndSplineSet
EndChar

StartChar: uni0653
Encoding: 1619 1619 54
GlifName: uni0653
Width: -30
VWidth: 2673
GlyphClass: 4
Flags: HW
AnchorPoint: "Anchor-10" 461.017 1539.11 mark 0
AnchorPoint: "Anchor-9" 461.017 1539.11 mark 0
AnchorPoint: "Anchor-1" 449.017 1893.25 basemark 0
AnchorPoint: "Anchor-1" 461.017 1539.11 mark 0
LayerCount: 2
Fore
SplineSet
373.235351562 1630.82714844 m 0
 317.84812782 1630.82714844 273.09375 1594.02441406 220.8125 1531.45800781 c 2
 208.190429688 1516.35351562 l 1
 194.272460938 1530.27246094 l 1
 93.2724609375 1641.27246094 l 5
 82.599609375 1651.94433594 l 5
 91.248046875 1664.31347656 l 6
 161.051757812 1764.16015625 236.762695312 1828.68457031 338.674804688 1828.68457031 c 4
 428.803710938 1828.68457031 496.763671875 1787.62207031 574.038085938 1787.62207031 c 4
 624.560546875 1787.62207031 671.194335938 1803.33496094 733.87109375 1835.05957031 c 6
 750.009765625 1843.22851562 l 5
 758.099609375 1827.04980469 l 5
 824.099609375 1685.04980469 l 1
 831.465820312 1670.31738281 l 1
 817.443359375 1661.67675781 l 2
 746.322265625 1617.84570312 680.378544399 1594.77568603 600.071557636 1594.77568603 c 0
 513.537633763 1594.77568603 445.873031967 1630.82714844 373.235351562 1630.82714844 c 0
EndSplineSet
EndChar

StartChar: uni0657
Encoding: 1623 1623 57
GlifName: uni0657
Width: -26
VWidth: 2316
GlyphClass: 4
Flags: HW
AnchorPoint: "Anchor-10" 513.285 1400.55 mark 0
AnchorPoint: "Anchor-9" 513.285 1400.55 mark 0
AnchorPoint: "Anchor-1" 537.285 2069.85 basemark 0
AnchorPoint: "Anchor-1" 513.285 1400.55 mark 0
LayerCount: 2
Fore
SplineSet
265.249921912 1814.99687646 m 2
 303.937053169 1814.02969818 345.68248625 1811.15593714 390.496059094 1806.52841897 c 1
 492.274757705 1948.91988621 622.556743554 2027.81479388 784.066592913 2042.95634226 c 2
 795 2043.98134917 l 1
 795 2033 l 1
 795 1955 l 1
 795 1946.49468225 l 1
 786.604937966 1945.12963151 l 2
 670.536380848 1926.25669539 575.665779254 1871.67253031 502.93786593 1783.19564627 c 1
 586.746937685 1755.38953044 668 1698.64701459 668 1599 c 0
 668 1502.6830679 598.72271107 1428 501 1428 c 0
 403.846001283 1428 322 1496.68663051 322 1603 c 0
 322 1630.90288887 328.628189847 1669.41098266 341.715037007 1712.93824855 c 1
 317.995583066 1714.60971679 293.531610965 1716 265 1716 c 2
 255 1716 l 1
 255 1726 l 1
 255 1805 l 1
 255 1815.25312451 l 1
 265.249921912 1814.99687646 l 2
501 1526 m 0
 543.217778735 1526 567 1553.25868907 567 1597 c 0
 567 1647.10826499 506.848893173 1680.36737559 442.966076713 1697.20648817 c 1
 427.349024452 1658.40288448 420 1628.27331069 420 1605 c 0
 420 1558.66289921 456.303816724 1526 501 1526 c 0
EndSplineSet
EndChar

StartChar: uni065A
Encoding: 1626 1626 58
GlifName: uni065A_
Width: 1135
VWidth: 2316
GlyphClass: 4
Flags: HW
AnchorPoint: "Anchor-10" 573.285 1350.55 mark 0
AnchorPoint: "Anchor-9" 573.285 1350.55 mark 0
AnchorPoint: "Anchor-1" 571.012 1862.38 basemark 0
AnchorPoint: "Anchor-1" 573.285 1350.55 mark 0
LayerCount: 2
Fore
SplineSet
493.408736507 1438.88236465 m 1
 300.408736507 1762.88236465 l 1
 291.403478412 1778 l 1
 309 1778 l 1
 433 1778 l 1
 438.743703325 1778 l 1
 441.637789009 1773.03871026 l 1
 573.030711641 1547.79370003 l 1
 705.377888534 1773.06549049 l 1
 708.276912873 1778 l 1
 714 1778 l 1
 838 1778 l 1
 855.643211119 1778 l 1
 846.579598704 1762.86283287 l 1
 652.579598704 1438.86283287 l 1
 649.667902477 1434 l 1
 644 1434 l 1
 502 1434 l 1
 496.317058659 1434 l 1
 493.408736507 1438.88236465 l 1
EndSplineSet
EndChar

StartChar: uni0660
Encoding: 1632 1632 59
GlifName: afii57392
Width: 902
VWidth: 2655
GlyphClass: 2
Flags: HW
LayerCount: 2
Fore
SplineSet
86.2802734375 503 m 0
 86.2802734375 703.983398438 250.016601562 867.719726562 451 867.719726562 c 0
 651.983398438 867.719726562 815.719726562 703.983398438 815.719726562 503 c 0
 815.719726562 302.016601562 651.983398438 138.280273438 451 138.280273438 c 0
 250.016601562 138.280273438 86.2802734375 302.016601562 86.2802734375 503 c 0
326.616210938 503.3515625 m 4
 326.616210938 434.046875 382.921875 377.616210938 451 377.616210938 c 4
 519.083007812 377.616210938 575.383789062 434.048828125 575.383789062 503.3515625 c 4
 575.383789062 571.641601562 520.515625 626.383789062 451 626.383789062 c 4
 381.48046875 626.383789062 326.616210938 571.635742188 326.616210938 503.3515625 c 4
EndSplineSet
EndChar

StartChar: uni0661
Encoding: 1633 1633 60
GlifName: afii57393
Width: 651
VWidth: 2950
GlyphClass: 2
Flags: HW
LayerCount: 2
Fore
SplineSet
328.71484375 1304.62207031 m 2
 467.86328125 995.404296875 537 636.311523438 537 205 c 2
 537 60 l 1
 537 0 l 1
 477 0 l 1
 307 0 l 1
 247 0 l 1
 247 60 l 1
 247 208 l 2
 247 628.3359375 184.555664062 950.94921875 64.1259765625 1196.58691406 c 2
 34.7685546875 1256.46777344 l 1
 97.408203125 1279.35546875 l 1
 253.408203125 1336.35546875 l 1
 305.817382812 1355.50585938 l 1
 328.71484375 1304.62207031 l 2
EndSplineSet
EndChar

StartChar: uni0662
Encoding: 1634 1634 61
GlifName: afii57394
Width: 1114
VWidth: 2950
GlyphClass: 2
Flags: HW
LayerCount: 2
Fore
SplineSet
247 208 m 6
 247 628.3359375 184.555664062 950.94921875 64.1259765625 1196.58691406 c 6
 34.6611328125 1256.68652344 l 5
 97.6123046875 1279.4296875 l 5
 252.612304688 1335.4296875 l 5
 308.365234375 1355.57324219 l 5
 329.1796875 1300.06738281 l 6
 358.923828125 1220.74902344 390.0546875 1141.40234375 420.114257812 1061.2421875 c 4
 460.708007812 955.006835938 507.782226562 915 624 915 c 4
 724.258789062 915 770 971.08984375 770 1110 c 4
 770 1155.94726562 760.274414062 1220.36328125 753.776367188 1260.38183594 c 6
 743.674804688 1322.58398438 l 5
 806.296875 1329.62402344 l 5
 975.296875 1348.62402344 l 5
 1033.96289062 1355.21972656 l 5
 1041.5078125 1296.66796875 l 6
 1047.26757812 1251.96875 1056 1184.25585938 1056 1120 c 4
 1056 827.438476562 904.573242188 622 626 622 c 4
 583.008789062 622 545.509765625 625.764648438 510.141601562 634.307617188 c 5
 528.78515625 478.44921875 537 339.641601562 537 205 c 6
 537 60 l 1
 537 0 l 1
 477 0 l 1
 307 0 l 1
 247 0 l 1
 247 60 l 1
 247 208 l 6
EndSplineSet
EndChar

StartChar: uni0663
Encoding: 1635 1635 62
GlifName: afii57395
Width: 1411
VWidth: 2950
GlyphClass: 2
Flags: HW
LayerCount: 2
Fore
SplineSet
247 208 m 2
 247 628.3359375 184.555664062 950.94921875 64.1259765625 1196.58691406 c 2
 34.6611328125 1256.68652344 l 1
 97.6123046875 1279.4296875 l 1
 252.612304688 1335.4296875 l 1
 309.28515625 1355.90527344 l 1
 329.517578125 1299.14453125 l 2
 365.34765625 1198.62109375 402.375976562 1098.54199219 438.502929688 997.184570312 c 0
 458.883789062 940.258789062 493.096679688 916.024414062 566.267578125 915 c 0
 595.276367188 915.155273438 636.979492188 941.637695312 638 1121.17089844 c 0
 638 1154.00488281 639 1187.34863281 639 1218 c 2
 639 1273.1484375 l 1
 693.953125 1277.78710938 l 1
 847.953125 1290.78710938 l 1
 911.110351562 1296.11914062 l 1
 912.973632812 1232.76367188 l 2
 913.935546875 1200.06347656 915.951171875 1164.53808594 916.965820312 1130.03515625 c 0
 924.1015625 944.504882812 968.744140625 915 999 915 c 0
 1045.02050781 915 1068 950.845703125 1068 1054 c 0
 1068 1144.05273438 1056.85351562 1207.9140625 1047.87890625 1259.76757812 c 2
 1037.08300781 1322.14453125 l 1
 1099.94824219 1329.58398438 l 1
 1268.94824219 1349.58398438 l 1
 1328.01074219 1356.57421875 l 1
 1335.51953125 1297.57519531 l 2
 1342.5234375 1242.546875 1353 1161.98535156 1353 1060 c 0
 1353 825.430664062 1244.30078125 622 995 622 c 0
 914.412109375 622 837.9140625 650.381835938 772.551757812 707.171875 c 1
 708.153320312 649.874023438 637.608398438 622 568 622 c 0
 550.061523438 622 529.078125 623.541992188 511.831054688 626.33203125 c 1
 529.487304688 475.887695312 537 347.012695312 537 205 c 2
 537 60 l 1
 537 0 l 1
 477 0 l 1
 307 0 l 1
 247 0 l 1
 247 60 l 1
 247 208 l 2
EndSplineSet
EndChar

StartChar: uni0664
Encoding: 1636 1636 63
GlifName: afii57396
Width: 1006
VWidth: 2950
GlyphClass: 2
Flags: HW
LayerCount: 2
Fore
SplineSet
790.37890625 588.330078125 m 2
 481.603515625 464.204101562 374 416.025390625 374 371 c 0
 374 349.916992188 440.516601562 300 704 300 c 2
 896 300 l 1
 955.336914062 300 l 1
 955.99609375 240.666992188 l 1
 957.99609375 60.6669921875 l 1
 958.669921875 0 l 1
 898 0 l 1
 696.919921875 0 l 2
 323.942382812 1 71 104.697265625 71 367 c 0
 71 525.799804688 189.092773438 592.411132812 369.947265625 695.348632812 c 1
 234.212890625 756.084960938 154 834.694335938 154 983 c 0
 154 1241.89355469 405.220703125 1335.84375 655.622070312 1339 c 0
 703.2109375 1339 753.649414062 1335.87890625 805.291992188 1329.55566406 c 2
 862.001953125 1322.61132812 l 1
 857.840820312 1265.62988281 l 1
 844.840820312 1087.62988281 l 1
 840.256835938 1024.86328125 l 1
 777.780273438 1032.43554688 l 2
 746.715820312 1036.20117188 719.137695312 1038 694 1038 c 4
 507.822265625 1038 469 1021.78417969 469 966 c 0
 469 934.231445312 525.446289062 905.689453125 771.087890625 884.784179688 c 2
 825.39453125 880.162109375 l 1
 825.99609375 825.663085938 l 1
 827.068359375 728.663085938 l 1
 827.99609375 644.663085938 l 1
 828.44921875 603.633789062 l 1
 790.37890625 588.330078125 l 2
EndSplineSet
EndChar

StartChar: uni0665
Encoding: 1637 1637 64
GlifName: afii57397
Width: 1177
VWidth: 2950
GlyphClass: 2
Flags: HW
LayerCount: 2
Fore
SplineSet
568.01171875 855.729492188 m 1
 419.479492188 682.241210938 349 575.887695312 349 478 c 4
 349 350.443359375 429.703125 298 595 298 c 4
 752.859375 298 829 349.760742188 829 485 c 4
 829 600.439453125 737.712890625 706.110351562 568.01171875 855.729492188 c 1
504.862304688 1297.83203125 m 2
 904.118164062 1012.79394531 1121 811.99609375 1121 462 c 4
 1121 177.19921875 919.575195312 0 591 0 c 0
 243.803710938 0 57 184.733398438 57 461 c 4
 57 688.401367188 158.0390625 826.540039062 333.02734375 1041.76171875 c 1
 324.219726562 1048.59472656 l 1
 278.712890625 1083.90234375 l 1
 312.1328125 1130.81347656 l 1
 421.1328125 1283.81347656 l 1
 455.981445312 1332.72949219 l 1
 504.862304688 1297.83203125 l 2
EndSplineSet
EndChar

StartChar: uni0666
Encoding: 1638 1638 65
GlifName: afii57398
Width: 1215
VWidth: 2950
GlyphClass: 2
Flags: HW
LayerCount: 2
Fore
SplineSet
817.700195312 45.8193359375 m 6
 740.725585938 362.268554688 696.779296875 572.076171875 684.9375 949.127929688 c 5
 600.219726562 929.19921875 525.750976562 919 434 919 c 4
 294.3984375 919 192.603515625 948.818359375 68.171875 1005.37792969 c 6
 33 1021.36523438 l 5
 33 1060 l 5
 33 1267 l 5
 33 1360.77441406 l 5
 118.143554688 1321.47753906 l 6
 244.254882812 1263.27246094 335.6484375 1236 480 1236 c 4
 617.790039062 1236 731.139648438 1265.06445312 881.904296875 1324.78320312 c 6
 962.784179688 1356.8203125 l 5
 963.994140625 1269.83496094 l 6
 971.951171875 697.891601562 1022.98925781 392.825195312 1117.47949219 77.2080078125 c 6
 1140.59375 0 l 5
 1060 0 l 5
 876 0 l 5
 828.844726562 0 l 5
 817.700195312 45.8193359375 l 6
EndSplineSet
EndChar

StartChar: uni0667
Encoding: 1639 1639 66
GlifName: afii57399
Width: 1246
VWidth: 2950
GlyphClass: 2
Flags: HW
LayerCount: 2
Fore
SplineSet
482.90234375 49.6318359375 m 2
 393.98046875 556.490234375 232.100585938 883.380859375 49.78515625 1162.16015625 c 6
 14.1162109375 1216.70117188 l 5
 71.412109375 1247.75195312 l 5
 226.412109375 1331.75195312 l 5
 277.263671875 1359.30957031 l 5
 306.66796875 1309.50292969 l 6
 423.984375 1110.78320312 542.400390625 838.2734375 623.46875 529.276367188 c 5
 704.026367188 839.975585938 821.896484375 1110.58203125 939.33203125 1309.50292969 c 6
 968.736328125 1359.30957031 l 5
 1019.58789062 1331.75195312 l 5
 1174.58789062 1247.75195312 l 5
 1231.88378906 1216.70117188 l 5
 1196.21484375 1162.16015625 l 6
 1013.94921875 883.458007812 853.033203125 556.567382812 764.09765625 49.6318359375 c 2
 755.389648438 0 l 1
 705 0 l 1
 625 0 l 1
 542 0 l 1
 491.610351562 0 l 1
 482.90234375 49.6318359375 l 2
EndSplineSet
EndChar

StartChar: uni0668
Encoding: 1640 1640 67
GlifName: afii57400
Width: 1246
VWidth: 2950
GlyphClass: 2
Flags: HW
LayerCount: 2
Fore
SplineSet
542 1325 m 5
 624 1325 l 5
 705 1325 l 5
 755.389648438 1325 l 5
 764.09765625 1275.36816406 l 6
 853.033203125 768.432617188 1013.94921875 441.54296875 1196.21484375 162.83984375 c 2
 1231.88378906 108.298828125 l 1
 1174.58789062 77.248046875 l 1
 1019.58789062 -6.751953125 l 1
 968.736328125 -34.3095703125 l 1
 939.33203125 15.4970703125 l 2
 822.065429688 214.1328125 703.515625 486.9921875 623.46875 795.723632812 c 1
 541.883789062 484.755859375 424.154296875 214.504882812 306.66796875 15.4970703125 c 2
 277.263671875 -34.3095703125 l 1
 226.412109375 -6.751953125 l 1
 71.412109375 77.248046875 l 1
 14.1162109375 108.298828125 l 1
 49.78515625 162.83984375 l 2
 232.100585938 441.619140625 393.98046875 768.509765625 482.90234375 1275.36816406 c 6
 491.610351562 1325 l 5
 542 1325 l 5
EndSplineSet
EndChar

StartChar: uni0669
Encoding: 1641 1641 68
GlifName: afii57401
Width: 1026
GlyphClass: 2
Flags: HW
LayerCount: 2
Fore
SplineSet
47 887 m 4
 47 1105.60058594 220.381835938 1338 462 1338 c 4
 779.189453125 1338 859.283203125 1072.70898438 873.922851562 790.040039062 c 4
 889.283203125 480.834960938 900.296875 318.172851562 906.979492188 61.5615234375 c 2
 908.583007812 0 l 1
 847 0 l 1
 679 0 l 1
 620.544921875 0 l 1
 619.020507812 58.435546875 l 2
 615.979492188 174.985351562 607.55859375 355.111328125 602.98046875 524.048828125 c 5
 569.065429688 518.271484375 529.0078125 514 483 514 c 4
 216.239257812 514 47 625.364257812 47 887 c 4
461 1042 m 4
 397.787109375 1042 333 968.329101562 333 887 c 4
 333 834.12109375 341.874023438 804 486 804 c 4
 510.58984375 804 552.4375 809.58203125 583.740234375 815.674804688 c 5
 576.864257812 906.262695312 563.684570312 972.884765625 540.958984375 1006.16796875 c 4
 525.434570312 1028.90625 507.450195312 1042 461 1042 c 4
EndSplineSet
EndChar

StartChar: uni066A
Encoding: 1642 1642 69
GlifName: afii57381
Width: 1033
VWidth: 4036
GlyphClass: 2
Flags: HW
LayerCount: 2
Fore
SplineSet
767 1346 m 1
 899 1287 l 1
 953 1262 l 1
 322 -14 l 1
 267 11 l 1
 135 71 l 1
 81 95 l 1
 712 1371 l 1
 767 1346 l 1
577 253 m 0
 577 359 663 447 770 447 c 0
 877 447 963 359 963 253 c 0
 963 147 876 60 770 60 c 0
 664 60 577 144 577 253 c 0
70 1099 m 4
 70 1205 156 1293 263 1293 c 4
 370 1293 456 1205 456 1099 c 4
 456 993 369 906 263 906 c 4
 157 906 70 990 70 1099 c 4
EndSplineSet
EndChar

StartChar: uni066B
Encoding: 1643 1643 70
GlifName: uni066B_
Width: 772
VWidth: 2950
GlyphClass: 2
Flags: HW
LayerCount: 2
Fore
SplineSet
557.477539062 828.215820312 m 1
 684.477539062 774.215820312 l 1
 740.05859375 750.583007812 l 1
 716.060546875 695.159179688 l 1
 254.060546875 -371.840820312 l 1
 230.264648438 -426.797851562 l 1
 175.262695312 -403.104492188 l 1
 45.2626953125 -347.104492188 l 1
 -10.1142578125 -323.25 l 1
 14.0126953125 -267.991210938 l 1
 479.012695312 797.008789062 l 1
 502.791015625 851.46875 l 1
 557.477539062 828.215820312 l 1
EndSplineSet
PairPos2: "'kern' Horizontal Kerning lookup 15-4" uni06F2 dx=-130 dy=0 dh=-130 dv=0 dx=0 dy=0 dh=0 dv=0
PairPos2: "'kern' Horizontal Kerning lookup 15-4" uni06F3 dx=-130 dy=0 dh=-130 dv=0 dx=0 dy=0 dh=0 dv=0
PairPos2: "'kern' Horizontal Kerning lookup 15-4" uni06F4 dx=-110 dy=0 dh=-110 dv=0 dx=0 dy=0 dh=0 dv=0
EndChar

StartChar: uni066C
Encoding: 1644 1644 71
GlifName: uni066C_
Width: 560
GlyphClass: 2
Flags: HW
LayerCount: 2
Fore
SplineSet
141.758848374 -347.818186173 m 1
 46.7588483744 -275.818186173 l 1
 0.173546172421 -240.51143082 l 1
 34.2516846391 -193.019980711 l 2
 91.1625859785 -113.708687512 124.394774968 -24.2673301604 127 52.8799231188 c 2
 127 219 l 1
 127 279 l 1
 187 279 l 1
 358 279 l 1
 418 279 l 1
 418 219 l 1
 418 74 l 2
 418 -100.93693187 317.573273505 -263.819514671 215.859099555 -346.547702208 c 2
 179.307793944 -376.276334394 l 1
 141.758848374 -347.818186173 l 1
EndSplineSet
EndChar

StartChar: uni066D
Encoding: 1645 1645 72
GlifName: afii63167
Width: 1436
VWidth: 2948
GlyphClass: 2
Flags: HW
LayerCount: 2
Fore
SplineSet
151 1159 m 1
 539.553710938 1159 l 1
 660.99609375 1528.72363281 l 1
 718 1702.26855469 l 1
 775.00390625 1528.72363281 l 1
 896.446289062 1159 l 1
 1285 1159 l 1
 1468.24023438 1159 l 1
 1320.48828125 1050.62011719 l 1
 1006.53320312 820.327148438 l 1
 1127.03125 451.639648438 l 1
 1184.25 276.568359375 l 1
 1034.890625 384.344726562 l 1
 718 613.009765625 l 1
 401.109375 384.344726562 l 1
 251.75 276.568359375 l 1
 308.96875 451.639648438 l 1
 429.466796875 820.327148438 l 1
 115.51171875 1050.62011719 l 1
 -32.240234375 1159 l 1
 151 1159 l 1
EndSplineSet
EndChar

StartChar: uni066E
Encoding: 1646 1646 73
GlifName: uni066E_
Width: 1777
VWidth: 2950
GlyphClass: 2
Flags: HW
AnchorPoint: "Anchor-10" 973.36 1473.35 basechar 0
AnchorPoint: "Anchor-7" 923.36 -199.261 basechar 0
LayerCount: 2
Fore
SplineSet
975 0 m 6
 840 0 l 2
 352.82421875 0 38 172.923828125 38 544 c 0
 38 642.030273438 60.0283203125 736.077148438 96.8876953125 821.719726562 c 2
 119.454101562 874.153320312 l 1
 172.946289062 854.224609375 l 1
 325.946289062 797.224609375 l 1
 382.29296875 776.233398438 l 1
 361.1796875 719.932617188 l 2
 342.565429688 670.294921875 333 619.234375 333 569.13671875 c 0
 333.76171875 401.45703125 466.166015625 300 830 300 c 2
 968 300 l 6
 1261.8828125 300 1446 306.874023438 1446 508 c 4
 1446 559.869140625 1433.875 645.438476562 1411.46972656 744.801757812 c 6
 1398.57421875 801.990234375 l 5
 1455.44824219 816.208984375 l 5
 1615.44824219 856.208984375 l 5
 1669.51367188 869.724609375 l 5
 1686.97753906 816.802734375 l 6
 1721.70898438 711.557617188 1739 610.892578125 1739 523 c 4
 1739 66.08203125 1383.27539062 0 975 0 c 6
EndSplineSet
Substitution2: "'fina' Terminal Forms in Arabic lookup 9 subtable" uni066E.fina
EndChar

StartChar: uni066F
Encoding: 1647 1647 74
GlifName: uni066F_
Width: 1437
VWidth: 2950
GlyphClass: 2
Flags: HW
AnchorPoint: "Anchor-10" 115.809 1420.22 basechar 0
AnchorPoint: "Anchor-7" 329.219 -703.353 basechar 0
LayerCount: 2
Fore
SplineSet
1095.77929688 380.870117188 m 1
 1073.09667969 508.318359375 1026.29003906 584 971 584 c 0
 932.946289062 584 871 530.94921875 871 436 c 0
 871 395.703125 884.228515625 369 987 369 c 0
 1022.79589844 369 1059.44824219 373.274414062 1095.77929688 380.870117188 c 1
399.125 520.787109375 m 2
 353.048828125 398.876953125 330 287.215820312 330 181 c 0
 330 -57.068359375 442.377929688 -167 725 -167 c 0
 1002.99414062 -167 1090.359375 -73.8388671875 1114.17089844 91.7255859375 c 1
 1068.71875 83.4306640625 1021.83984375 79 971 79 c 0
 739.608398438 79 591 193.479492188 591 409 c 0
 591 628.727539062 723.958984375 879 978 879 c 0
 1307.72949219 879 1399 516.806640625 1399 216 c 0
 1399 -225.8125 1179.08007812 -460 721 -460 c 0
 277.34375 -460 38 -239.532226562 38 176 c 0
 38 324.638671875 69.9482421875 475.587890625 132.50390625 627.806640625 c 2
 155.22265625 683.088867188 l 1
 210.591796875 660.583984375 l 1
 365.591796875 597.583984375 l 1
 419.8203125 575.54296875 l 1
 399.125 520.787109375 l 2
EndSplineSet
Substitution2: "'fina' Terminal Forms in Arabic lookup 9 subtable" uni066F.fina
EndChar

StartChar: uni0670
Encoding: 1648 1648 75
GlifName: uni0670
Width: -29
VWidth: 2574
GlyphClass: 4
Flags: HW
AnchorPoint: "Anchor-10" 636.984 1500.61 mark 0
AnchorPoint: "Anchor-9" 636.984 1500.61 mark 0
AnchorPoint: "Anchor-1" 636.984 1957.18 basemark 0
AnchorPoint: "Anchor-1" 636.984 1500.61 mark 0
LayerCount: 2
Fore
SplineSet
583 1568 m 1
 583 1930 l 5
 583 1940 l 5
 593 1940 l 5
 681 1940 l 5
 691 1940 l 5
 691 1930 l 5
 691 1568 l 1
 691 1558 l 1
 681 1558 l 1
 593 1558 l 1
 583 1558 l 1
 583 1568 l 1
EndSplineSet
EndChar

StartChar: uni0674
Encoding: 1652 1652 76
GlifName: uni0674
Width: 551
VWidth: 2539
GlyphClass: 2
Flags: HW
LayerCount: 2
Fore
SplineSet
164.812134069 1974.81670084 m 1
 123.146650992 2014.91475013 106 2064.13137366 106 2133 c 0
 106 2266.94935017 206.8541796 2351 337 2351 c 0
 387.270353965 2351 435.168755289 2335.59512765 478.309611908 2308.7159008 c 2
 482.979222455 2305.80646573 l 1
 483.021193397 2300.30480111 l 1
 483.930373084 2181.12706674 l 1
 484.066349428 2163.30291955 l 1
 468.783830937 2172.47697761 l 2
 428.637281186 2196.57685217 390.518500334 2208 351 2208 c 0
 282.831613351 2208 241 2183.28000797 241 2120.06253124 c 0
 241.954472021 2081.89915625 262.341443189 2053.09350193 322.660463124 2030.71686043 c 0
 328.970420774 2028.61321838 334.361266972 2027.1953125 338.90234375 2027.1953125 c 0
 341.480321442 2027.1953125 340.243230486 2027.03579181 345.351718766 2028.15796749 c 0
 389.183666235 2036.56471042 434.715630664 2046.18232965 478.064614884 2054.73371126 c 2
 490 2057.08818472 l 1
 490 2044.92278447 l 1
 490 1928.93916352 l 1
 490 1921.06122011 l 1
 482.340956508 1919.21702782 l 1
 85.3409565083 1823.62489023 l 1
 73 1820.6533577 l 1
 73 1833.34702593 l 1
 73 1946.00679526 l 1
 73 1953.99267371 l 1
 80.7880683723 1955.75909542 l 1
 164.812134069 1974.81670084 l 1
EndSplineSet
EndChar

StartChar: uni06A1
Encoding: 1697 1697 80
GlifName: uni06A_1
Width: 1781
VWidth: 2950
GlyphClass: 2
Flags: HW
AnchorPoint: "Anchor-10" 637.853 1688.62 basechar 0
AnchorPoint: "Anchor-7" 620.182 -294.248 basechar 0
LayerCount: 2
Fore
SplineSet
1449.95996094 380.314453125 m 5
 1409.22753906 373.950195312 1370.09765625 371 1328 371 c 4
 1090.625 371 942 476.094726562 942 698 c 4
 942 924.29296875 1079.79003906 1161 1328 1161 c 4
 1639.59765625 1161 1743 815.580078125 1743 520.842773438 c 4
 1740.81445312 103.358398438 1535.80761719 0 1127 0 c 6
 837 0 l 2
 341.35546875 0 38 173.928710938 38 544 c 0
 38 642.030273438 60.0283203125 736.077148438 96.8876953125 821.719726562 c 2
 119.454101562 874.153320312 l 1
 172.946289062 854.224609375 l 1
 325.946289062 797.224609375 l 1
 382.29296875 776.233398438 l 1
 361.1796875 719.932617188 l 2
 342.541015625 670.228515625 333 619.396484375 333 569 c 0
 333 402.924804688 477.266601562 300 833 300 c 2
 1148 300 l 6
 1332.43847656 300 1440.73144531 316.955078125 1449.95996094 380.314453125 c 5
1446.31347656 662.859375 m 5
 1422.73339844 789.466796875 1375.94433594 865 1322 865 c 4
 1283.39746094 865 1222 813.795898438 1222 717 c 4
 1222 677.228515625 1234.39355469 651 1339 651 c 4
 1373.80078125 651 1411.19140625 655.471679688 1446.31347656 662.859375 c 5
EndSplineSet
Substitution2: "'init' Initial Forms in Arabic lookup 13 subtable" uni06A1.init
Substitution2: "'medi' Medial Forms in Arabic lookup 11 subtable" uni06A1.medi
Substitution2: "'fina' Terminal Forms in Arabic lookup 9 subtable" uni06A1.fina
EndChar

StartChar: uni06A9
Encoding: 1705 1705 81
GlifName: uni06A_9
Width: 1865
VWidth: 2950
GlyphClass: 2
Flags: HW
AnchorPoint: "Anchor-7" 900.268 -166.468 basechar 0
AnchorPoint: "Anchor-10" 1193.88 1424.67 basechar 0
LayerCount: 2
Fore
SplineSet
1246.01367188 1047.35546875 m 5
 1384.51171875 928.6328125 1489.73242188 832.387695312 1559.13867188 757.642578125 c 4
 1651.40625 656.587890625 1702 540.697265625 1702 415 c 4
 1702 123.038085938 1440.12402344 0 1031 0 c 6
 840 0 l 2
 352.82421875 0 38 172.923828125 38 544 c 0
 38 642.030273438 60.0283203125 736.077148438 96.8876953125 821.719726562 c 2
 119.454101562 874.153320312 l 1
 172.946289062 854.224609375 l 1
 325.946289062 797.224609375 l 1
 382.29296875 776.233398438 l 1
 361.1796875 719.932617188 l 2
 342.565429688 670.294921875 333 619.234375 333 569.13671875 c 0
 333.76171875 401.45703125 466.166015625 300 830 300 c 2
 1030 300 l 6
 1327.23144531 300 1406 368.3984375 1406 432 c 4
 1406 476.884765625 1384.29589844 525.513671875 1320.97265625 585.21875 c 4
 1220.26855469 679.012695312 1128.75195312 758.537109375 1051.04199219 819.733398438 c 4
 967.860351562 884.30859375 915 961.84765625 915 1052 c 4
 915 1073.41796875 917.37890625 1094.3828125 922.423828125 1114.56054688 c 4
 943.247070312 1197.84570312 1007 1257 1093.73339844 1289.10644531 c 6
 1803.1328125 1553.99316406 l 5
 1803.1328125 1467.73535156 l 5
 1803.1328125 1296.73535156 l 5
 1803.1328125 1254.99609375 l 5
 1246.01367188 1047.35546875 l 5
EndSplineSet
Substitution2: "'init' Initial Forms in Arabic lookup 13 subtable" uniFB90
Substitution2: "'medi' Medial Forms in Arabic lookup 11 subtable" uniFB91
Substitution2: "'fina' Terminal Forms in Arabic lookup 9 subtable" uniFB8F
EndChar

StartChar: uni06BA
Encoding: 1722 1722 83
GlifName: afii57514
Width: 1447
VWidth: 2950
GlyphClass: 2
Flags: HW
LayerCount: 2
Fore
SplineSet
1067.5234375 655.750976562 m 1
 1236.5234375 713.750976562 l 1
 1290.86621094 732.401367188 l 1
 1311.85351562 678.916992188 l 2
 1376.13867188 515.095703125 1409 355.5 1409 200 c 0
 1409 -219.938476562 1132.25488281 -450 721 -450 c 0
 280.315429688 -450 38 -228.805664062 38 186 c 0
 38 334.638671875 69.9482421875 485.587890625 132.50390625 637.806640625 c 2
 155.22265625 693.088867188 l 1
 210.591796875 670.583984375 l 1
 365.591796875 607.583984375 l 1
 419.8203125 585.54296875 l 1
 399.125 530.787109375 l 2
 353.048828125 408.876953125 330 297.215820312 330 191 c 0
 330 -46.3759765625 445.967773438 -157 728 -157 c 0
 996.788085938 -157 1116.09570312 -38.3486328125 1117 230.100585938 c 0
 1117 342.676757812 1088.69726562 456.73046875 1032.90136719 573.05078125 c 2
 1003.73339844 633.858398438 l 1
 1067.5234375 655.750976562 l 1
EndSplineSet
Substitution2: "'fina' Terminal Forms in Arabic lookup 9 subtable" uniFB9F
EndChar

StartChar: uni06F4
Encoding: 1780 1780 90
GlifName: uni06F_4
Width: 1193
VWidth: 2950
GlyphClass: 2
Flags: HW
LayerCount: 2
Fore
SplineSet
1100.18652344 598.090820312 m 2
 1011.42773438 558.995117188 921.884765625 534 820 534 c 0
 695.541992188 534 591.493164062 560.1171875 508.642578125 602.786132812 c 1
 524.106445312 453.470703125 532 324.39453125 532 205 c 2
 532 60 l 1
 532 0 l 1
 472 0 l 1
 302 0 l 1
 242 0 l 1
 242 60 l 1
 242 208 l 2
 242 628.3359375 179.555664062 950.94921875 59.1259765625 1196.58691406 c 2
 29.6005859375 1256.81054688 l 1
 92.728515625 1279.47167969 l 1
 248.728515625 1335.47167969 l 1
 305.676757812 1355.91503906 l 1
 325.639648438 1298.796875 l 1
 397.639648438 1092.796875 l 2
 402.150390625 1079.89355469 407.216796875 1065.68847656 410.608398438 1056.32226562 c 1
 467.231445312 1208.55273438 597.208007812 1347 796 1347 c 0
 958.741210938 1347 1055.97167969 1275.02148438 1072 1263 c 2
 1107.59179688 1236.30664062 l 1
 1092.38769531 1194.49511719 l 1
 1036.38769531 1040.49511719 l 1
 1013.38085938 977.227539062 l 1
 946.505169464 1010.66484172 919.53037431 1046.40722656 807.034179688 1046.40722656 c 4
 716.759765625 1046.40722656 658.137695312 972.846679688 648.581054688 875.158203125 c 0
 647.603515625 865.163085938 647.274414062 857.234375 647.313476562 852.458007812 c 1
 652.321289062 850.424804688 657.829101562 848.458984375 665.650390625 845.747070312 c 0
 698.126953125 834.490234375 740.970703125 827 799 827 c 0
 879.905273438 827 953.658203125 848.885742188 1030.71679688 879.708984375 c 2
 1102.20117188 908.302734375 l 1
 1112.46484375 831.998046875 l 1
 1135.46484375 660.998046875 l 1
 1141.47949219 616.279296875 l 1
 1100.18652344 598.090820312 l 2
EndSplineSet
PairPos2: "'kern' Horizontal Kerning lookup 15-4" uni06F0 dx=-64 dy=0 dh=-64 dv=0 dx=0 dy=0 dh=0 dv=0
PairPos2: "'kern' Horizontal Kerning lookup 15-4" uni06F5 dx=-40 dy=0 dh=-40 dv=0 dx=0 dy=0 dh=0 dv=0
PairPos2: "'kern' Horizontal Kerning lookup 15-4" uni06F8 dx=-64 dy=0 dh=-64 dv=0 dx=0 dy=0 dh=0 dv=0
PairPos2: "'kern' Horizontal Kerning lookup 15-4" uni06F1 dx=-64 dy=0 dh=-64 dv=0 dx=0 dy=0 dh=0 dv=0
PairPos2: "'kern' Horizontal Kerning lookup 15-4" uni06F9 dx=-64 dy=0 dh=-64 dv=0 dx=0 dy=0 dh=0 dv=0
EndChar

StartChar: uni06F5
Encoding: 1781 1781 91
GlifName: uni06F_5
Width: 1246
VWidth: 2950
GlyphClass: 2
Flags: HW
LayerCount: 2
Fore
SplineSet
396 290 m 0
 439 290 475.351732474 292.914987913 502 438 c 2
 511 487 l 1
 561 487 l 1
 685 487 l 1
 736 487 l 1
 744 437 l 2
 766.508580343 296.321372855 808 290 854 290 c 0
 880 290 906 301 906 384 c 0
 906 413.409202496 903.719635853 440.362628218 898.90896834 466 c 4
 875.584401235 590.303040479 792.777350499 683.668226622 622 876 c 1
 465.369662556 660.533901282 379.539990217 563.911776135 350.940580256 464 c 0
 343.569412267 438.248892305 340 412.279256003 340 384 c 0
 340 309 375 290 396 290 c 0
576 1337 m 2
 1001 942 1190 716 1190 385 c 0
 1190 138 1063 0 854 0 c 0
 762 0 681 44 626 111 c 1
 574 42 494 0 397 0 c 0
 194 0 56 143 56 385 c 0
 56 657 222 819 412 1083 c 1
 388 1107 l 1
 351 1144 l 1
 382 1186 l 1
 487 1329 l 1
 526 1383 l 1
 576 1337 l 2
EndSplineSet
PairPos2: "'kern' Horizontal Kerning lookup 15-4" uni06F2 dx=-100 dy=0 dh=-100 dv=0 dx=0 dy=0 dh=0 dv=0
PairPos2: "'kern' Horizontal Kerning lookup 15-4" uni06F3 dx=-100 dy=0 dh=-100 dv=0 dx=0 dy=0 dh=0 dv=0
PairPos2: "'kern' Horizontal Kerning lookup 15-4" uni06F4 dx=-42 dy=0 dh=-42 dv=0 dx=0 dy=0 dh=0 dv=0
PairPos2: "'kern' Horizontal Kerning lookup 15-4" uni06F6 dx=-42 dy=0 dh=-42 dv=0 dx=0 dy=0 dh=0 dv=0
PairPos2: "'kern' Horizontal Kerning lookup 15-4" uni06F7 dx=-100 dy=0 dh=-100 dv=0 dx=0 dy=0 dh=0 dv=0
PairPos2: "'kern' Horizontal Kerning lookup 15-4" uni06F8 dx=-38 dy=0 dh=-38 dv=0 dx=0 dy=0 dh=0 dv=0
EndChar

StartChar: uni06F6
Encoding: 1782 1782 92
GlifName: uni06F_6
Width: 1009
VWidth: 2950
GlyphClass: 2
Flags: HW
LayerCount: 2
Fore
SplineSet
898 917 m 1
 918 848 l 1
 965 686 l 1
 979 636 l 1
 691 491 580 362 316 -58 c 1
 259 -33 l 1
 103 37 l 1
 51 61 l 1
 174 291 234 367 370 520 c 1
 182 578 73 714 73 869 c 0
 73 1100 246 1340 528 1340 c 0
 597 1340 692 1330 792 1264 c 2
 833 1237 l 1
 815 1192 l 1
 755 1041 l 1
 730 980 l 1
 672 1009 l 2
 638.481018195 1026.26735426 613.473567763 1034.76525196 592 1038.94737877 c 4
 571.19139223 1043 553.701192294 1043 535 1043 c 0
 449 1043 367 948 367 876 c 0
 367 853 394 781 612 759 c 1
 696 812 740 839 833 885 c 2
 898 917 l 1
EndSplineSet
PairPos2: "'kern' Horizontal Kerning lookup 15-4" uni06F7 dx=-40 dy=0 dh=-40 dv=0 dx=0 dy=0 dh=0 dv=0
PairPos2: "'kern' Horizontal Kerning lookup 15-4" uni06F8 dx=-40 dy=0 dh=-40 dv=0 dx=0 dy=0 dh=0 dv=0
PairPos2: "'kern' Horizontal Kerning lookup 15-4" uni06F9 dx=-30 dy=0 dh=-30 dv=0 dx=0 dy=0 dh=0 dv=0
EndChar

StartChar: uniFB8F
Encoding: 64399 64399 107
GlifName: uniF_B_8F_
Width: 1941
VWidth: 2950
GlyphClass: 2
Flags: HW
AnchorPoint: "Anchor-10" 1193.88 1424.67 basechar 0
AnchorPoint: "Anchor-7" 900.268 -166.468 basechar 0
LayerCount: 2
Fore
SplineSet
1246.01367188 1047.35546875 m 5
 1382.75488281 931.153320312 1488.45507812 834.510742188 1559.04003906 757.749023438 c 4
 1620.16113281 692.1015625 1664.67089844 609.293945312 1699.52539062 512.122070312 c 4
 1754.00390625 357.918945312 1830.7890625 300 1933 300 c 6
 1959 300 l 5
 1959 240 l 5
 1959 60 l 5
 1959 0 l 5
 1933 0 l 6
 1794.09082031 0 1675.69042969 52.630859375 1584.03320312 146.924804688 c 5
 1472.20507812 42.11328125 1287.66113281 0 1030 0 c 6
 838 0 l 2
 351.694335938 0 38 173.067382812 38 544 c 0
 38 642.030273438 60.0283203125 736.077148438 96.8876953125 821.719726562 c 2
 119.454101562 874.153320312 l 1
 172.946289062 854.224609375 l 1
 325.946289062 797.224609375 l 1
 382.29296875 776.233398438 l 1
 361.1796875 719.932617188 l 2
 342.565429688 670.294921875 333 619.234375 333 569.13671875 c 0
 333.762695312 401.265625 465.3359375 300 828 300 c 2
 1030 300 l 6
 1327.08300781 300 1406 368.1953125 1406 433 c 4
 1406 475.759765625 1382.6484375 526.176757812 1319.95214844 585.23828125 c 4
 1214.92578125 683.329101562 1124.75097656 762.51171875 1051.20703125 819.60546875 c 4
 967.706054688 884.428710938 915 961.799804688 915 1052 c 4
 915 1073.09960938 917.307617188 1093.76660156 922.173828125 1113.67578125 c 4
 942.602539062 1197.26855469 1007 1257 1092.03027344 1289.16308594 c 6
 1803.1328125 1553.99316406 l 5
 1803.1328125 1467.73535156 l 5
 1803.1328125 1296.73535156 l 5
 1803.1328125 1254.99609375 l 5
 1246.01367188 1047.35546875 l 5
EndSplineSet
EndChar

StartChar: uniFB9F
Encoding: 64415 64415 115
GlifName: uniF_B_9F_
Width: 1513
VWidth: 2950
GlyphClass: 2
Flags: HW
AnchorPoint: "Anchor-10" 687.458 1424.61 basechar 0
AnchorPoint: "Anchor-7" 579.902 -742.086 basechar 0
LayerCount: 2
Fore
SplineSet
1117 160 m 0
 1117 272 1089 387 1033 503 c 2
 1004 564 l 1
 1067 586 l 1
 1236 644 l 1
 1294 664 l 1
 1313 606 l 1
 1385 380 l 2
 1405 318 1421 300 1503 300 c 2
 1531 300 l 5
 1531 240 l 5
 1531 60 l 5
 1531 0 l 5
 1507 0 l 2
 1463 0 1427 5 1395 16 c 1
 1349 -333 1086 -520 721 -520 c 0
 280 -520 38 -300 38 116 c 0
 38 265 71 416 133 568 c 2
 155 624 l 1
 211 601 l 1
 366 537 l 1
 420 515 l 1
 399 460 l 2
 353 339 330 227 330 121 c 0
 330 -117 446 -227 728 -227 c 0
 997 -227 1116 -110 1117 160 c 0
EndSplineSet
EndChar

StartChar: uniFBE8
Encoding: 64488 64488 118
GlifName: uniF_B_E_8
Width: 672
VWidth: 2950
GlyphClass: 2
Flags: HW
AnchorPoint: "Anchor-10" 311.384 1411 basechar 0
AnchorPoint: "Anchor-7" 303.422 -165.625 basechar 0
LayerCount: 2
Fore
SplineSet
583.5 815.139648438 m 2
 616.393554688 704.786132812 634 579.783203125 634 476 c 0
 634 150.067382812 455.973632812 0 129 0 c 2
 -19 0 l 5
 -19 60 l 5
 -19 240 l 5
 -19 300 l 5
 129 300 l 2
 313.5234375 300 343 313.411132812 343 473 c 0
 343 544.282226562 329.459960938 653.940429688 307.684570312 743.881835938 c 2
 293.670898438 801.764648438 l 1
 351.448242188 816.208984375 l 1
 511.448242188 856.208984375 l 1
 567.110351562 870.124023438 l 1
 583.5 815.139648438 l 2
EndSplineSet
EndChar

StartChar: uniFBE9
Encoding: 64489 64489 119
GlifName: uniF_B_E_9
Width: 767
VWidth: 2950
GlyphClass: 2
Flags: HW
AnchorPoint: "Anchor-10" 315.665 1355.09 basechar 0
AnchorPoint: "Anchor-7" 380.537 -119.742 basechar 0
LayerCount: 2
Fore
SplineSet
763 0 m 2
 643.454101562 0 550.747070312 35.0869140625 486.236328125 107.80078125 c 1
 396.798828125 31.9833984375 273.139648438 0 129 0 c 2
 -19 0 l 1
 -19 60 l 1
 -19 240 l 1
 -19 300 l 1
 131 300 l 2
 317.380859375 300 342.235351562 324.84375 343 447.1875 c 0
 343 509.717773438 339.279296875 582.809570312 335.1328125 645.008789062 c 2
 331.33203125 702.025390625 l 1
 388.094726562 708.6015625 l 1
 552.094726562 727.6015625 l 1
 614.793945312 734.865234375 l 1
 618.874023438 671.87890625 l 1
 634.872070312 424.91796875 l 2
 641.172851562 329.624023438 672.030273438 300 765 300 c 2
 786 300 l 1
 786 240 l 1
 786 60 l 1
 786 0 l 1
 763 0 l 2
EndSplineSet
EndChar

StartChar: uniFE73
Encoding: 65139 65139 127
GlifName: uniF_E_73
Width: 672
VWidth: 2950
GlyphClass: 2
Flags: HW
AnchorPoint: "Anchor-10" 342.943 1070.47 basechar 0
AnchorPoint: "Anchor-7" 416.943 -148.304 basechar 0
LayerCount: 2
Fore
SplineSet
358.336914062 484.018554688 m 2
 358.336914062 362.48046875 421.290039062 300.342773438 618.00390625 300.342773438 c 2
 684.674804688 300.342773438 l 1
 686.674804688 300.342773438 l 1
 696.674804688 300.342773438 l 5
 696.674804688 240.342773438 l 5
 696.674804688 238.342773438 l 5
 696.674804688 63.5537109375 l 5
 696.674804688 61.5537109375 l 5
 696.674804688 1.5537109375 l 5
 686.674804688 1.5537109375 l 1
 684.674804688 1.5537109375 l 1
 607.981445312 1.5537109375 l 2
 255.383789062 1.869140625 51.544921875 167.966796875 51.544921875 486.563476562 c 2
 51.544921875 506.69140625 l 1
 51.544921875 508.69140625 l 1
 51.544921875 568.69140625 l 1
 111.544921875 568.69140625 l 1
 113.544921875 568.69140625 l 1
 296.336914062 568.69140625 l 1
 298.336914062 568.69140625 l 1
 358.336914062 568.69140625 l 1
 358.336914062 508.69140625 l 1
 358.336914062 506.69140625 l 1
 358.336914062 484.018554688 l 2
EndSplineSet
EndChar

StartChar: uniFE8E
Encoding: 65166 65166 153
GlifName: uniF_E_8E_
Width: 527
VWidth: 2950
GlyphClass: 2
Flags: HW
AnchorPoint: "Anchor-10" 230.697 1521.11 basechar 0
AnchorPoint: "Anchor-7" 292.078 -181.903 basechar 0
LayerCount: 2
Fore
SplineSet
522 0 m 2
 249 0 88 150 88 465 c 2
 88 1326 l 1
 88 1386 l 1
 148 1386 l 1
 317 1386 l 1
 377 1386 l 1
 377 1326 l 1
 377 464 l 2
 377 322 417 300 522 300 c 2
 546 300 l 5
 546 240 l 5
 546 60 l 5
 546 0 l 5
 522 0 l 2
EndSplineSet
EndChar

StartChar: uniFEA2
Encoding: 65186 65186 173
GlifName: uniF_E_A_2
Width: 1378
VWidth: 2950
GlyphClass: 2
Flags: HW
AnchorPoint: "Anchor-7" 690.833 -770.619 basechar 0
AnchorPoint: "Anchor-10" 601.478 1236.07 basechar 0
LayerCount: 2
Fore
SplineSet
784 -677 m 0
 364 -677 39 -497 39 -91 c 0
 39 223 261 486 650 620 c 1
 556 657 494 676 477 676 c 0
 427 676 365 639 324 585 c 2
 297 550 l 1
 266 511 l 1
 222 533 l 1
 71 608 l 1
 14 637 l 1
 46 692 l 1
 61 719 l 1
 154 870 302 974 478 974 c 0
 580 974 687 930 807 872 c 0
 1012 772 1129 733 1231 728 c 2
 1292 725 l 1
 1288 664 l 2
 1284 606 1279 550 1275 494 c 2
 1271 442 l 1
 1219 438 l 2
 1171 435 1126 430 1083 425 c 1
 1096 325 1136 300 1300 300 c 2
 1397 300 l 5
 1397 240 l 5
 1397 60 l 5
 1397 0 l 5
 1303 0 l 2
 1020 0 841 97 814 367 c 1
 470 254 325 80 325 -75 c 0
 325 -278 453 -386 798 -386 c 0
 962.560546875 -386 1085.43261719 -344.145507812 1222 -280 c 1
 1237.35449219 -354.580078125 l 1
 1272.35449219 -524.580078125 l 1
 1281.82519531 -570.580078125 l 1
 1127.49609375 -644.290039062 991.703125 -677 784 -677 c 0
EndSplineSet
EndChar

StartChar: uniFEA3
Encoding: 65187 65187 174
GlifName: uniF_E_A_3
Width: 1334
VWidth: 2950
GlyphClass: 2
Flags: HW
AnchorPoint: "Anchor-10" 591.825 1190.07 basechar 0
AnchorPoint: "Anchor-7" 553.524 -176.745 basechar 0
LayerCount: 2
Fore
SplineSet
-19 60 m 5
 -19 240 l 5
 -19 300 l 5
 163 300 l 2
 251.520507812 300 364.19921875 313.3125 434.94921875 336.895507812 c 0
 530.40234375 369.001953125 641.774414062 425.677734375 806.16796875 510.567382812 c 1
 785.689453125 519.078125 766.655273438 526.875 740.500976562 537.377929688 c 0
 605.342773438 592.442382812 518.25390625 622 495 622 c 0
 445.033203125 622 382.895507812 585.41015625 341.57421875 531.438476562 c 2
 314.506835938 496.3515625 l 1
 284.421875 457.353515625 l 1
 240.309570312 479.263671875 l 1
 89.3095703125 554.263671875 l 1
 32.1171875 582.669921875 l 1
 64.029296875 637.983398438 l 1
 79.4296875 664.678710938 l 1
 172.267578125 816.092773438 319.62109375 920 496 920 c 0
 598.040039062 920 705.170898438 875.958007812 825.204101562 817.975585938 c 0
 1030.61816406 717.749023438 1147.59277344 679.215820312 1249.12597656 673.918945312 c 2
 1306.67382812 670.916015625 l 1
 1305.99609375 613.293945312 l 1
 1303.99609375 443.293945312 l 1
 1303.37109375 390.227539062 l 1
 1250.62597656 384.3671875 l 2
 1186.00292969 377.186523438 1092.77636719 338.815429688 889.03125 230.950195312 c 0
 742.807617188 153.83203125 630.975585938 95.537109375 519.880859375 56.3896484375 c 0
 410.3984375 18.0703125 271.202148438 0 151 0 c 2
 -19 0 l 5
 -19 60 l 5
EndSplineSet
EndChar

StartChar: uniFEA4
Encoding: 65188 65188 175
GlifName: uniF_E_A_4
Width: 1351
VWidth: 2950
GlyphClass: 2
Flags: HW
AnchorPoint: "Anchor-10" 591.825 1190.07 basechar 0
AnchorPoint: "Anchor-7" 553.524 -176.745 basechar 0
LayerCount: 2
Fore
SplineSet
1250.62597656 384.3671875 m 2
 1212.15722656 380.092773438 1168.03125 370.848632812 1112.62011719 348.677734375 c 1
 1128.37304688 326.5 1185.01464844 300 1317 300 c 2
 1370 300 l 5
 1370 240 l 5
 1370 60 l 5
 1370 0 l 5
 1313 0 l 2
 1095.42773438 0 930.780273438 59.3046875 872.35546875 223.473632812 c 1
 748.43359375 157.905273438 621.973632812 92.5283203125 519.920898438 56.4033203125 c 0
 410.348632812 18.052734375 271.225585938 0 151 0 c 2
 -19 0 l 1
 -19 60 l 1
 -19 240 l 1
 -19 300 l 1
 163 300 l 2
 251.520507812 300 364.19921875 313.3125 434.94921875 336.895507812 c 0
 530.40234375 369.001953125 641.774414062 425.677734375 806.16796875 510.567382812 c 1
 785.689453125 519.078125 766.655273438 526.875 740.500976562 537.377929688 c 0
 605.342773438 592.442382812 518.25390625 622 495 622 c 0
 445.033203125 622 382.895507812 585.41015625 341.57421875 531.438476562 c 2
 314.506835938 496.3515625 l 1
 284.421875 457.353515625 l 1
 240.309570312 479.263671875 l 1
 89.3095703125 554.263671875 l 1
 32.1171875 582.669921875 l 1
 64.029296875 637.983398438 l 1
 79.4296875 664.678710938 l 1
 172.267578125 816.092773438 319.62109375 920 496 920 c 0
 598.040039062 920 705.170898438 875.958007812 825.204101562 817.975585938 c 0
 1030.61816406 717.749023438 1147.59277344 679.215820312 1249.12597656 673.918945312 c 2
 1306.67382812 670.916015625 l 1
 1305.99609375 613.293945312 l 1
 1303.99609375 443.293945312 l 1
 1303.37109375 390.227539062 l 1
 1250.62597656 384.3671875 l 2
EndSplineSet
EndChar

StartChar: uniFEAA
Encoding: 65194 65194 181
GlifName: uniF_E_A_A_
Width: 1045
VWidth: 2950
GlyphClass: 2
Flags: HW
AnchorPoint: "Anchor-7" 401.24 -181.316 basechar 0
AnchorPoint: "Anchor-10" 506.848 1213.53 basechar 0
LayerCount: 2
Fore
SplineSet
112 328 m 2
 188 309 246 301 307 301 c 0
 542 301 594 357 594 407 c 0
 594 418 568 503 508 643 c 2
 387 925 l 1
 365 979 l 1
 418 1003 l 1
 579 1078 l 1
 636 1104 l 1
 660 1045 l 1
 851 561 l 2
 931 358 1003 300 1033 300 c 2
 1064 300 l 5
 1064 240 l 5
 1064 60 l 5
 1064 0 l 5
 1033 0 l 2
 923 0 831 48 763 130 c 1
 657 41 511 1 322 1 c 0
 227 1 152 11 84 27 c 2
 38 38 l 1
 38 86 l 1
 38 269 l 1
 38 346 l 1
 112 328 l 2
EndSplineSet
EndChar

StartChar: uniFEAE
Encoding: 65198 65198 185
GlifName: uniF_E_A_E_
Width: 860
VWidth: 2142
GlyphClass: 2
Flags: HW
AnchorPoint: "Anchor-7" 322.969 -579.998 basechar 0
AnchorPoint: "Anchor-10" 493.256 908.2 basechar 0
LayerCount: 2
Fore
SplineSet
455 190 m 0
 455 271 430 392 382 505 c 2
 358 564 l 1
 417 585 l 1
 579 644 l 1
 638 665 l 1
 657 606 l 1
 718 414 l 2
 747 324 779 300 841 300 c 2
 879 300 l 1
 879 240 l 1
 879 60 l 1
 879 0 l 1
 852 0 l 2
 800 0 758 4 723 15 c 1
 662 -273 427 -459 61 -527 c 2
 13 -536 l 1
 -6 -490 l 1
 -66 -335 l 1
 -93 -268 l 1
 -21 -255 l 2
 313 -191 453 -44 455 190 c 0
EndSplineSet
PairPos2: "'kern' Horizontal Kerning lookup 15-1" uniFEE7 dx=-178 dy=0 dh=-178 dv=0 dx=0 dy=0 dh=0 dv=0
PairPos2: "'kern' Horizontal Kerning lookup 15-2" uniFE8B dx=-178 dy=0 dh=-178 dv=0 dx=0 dy=0 dh=0 dv=0
PairPos2: "'kern' Horizontal Kerning lookup 15-2" uni0640 dx=-178 dy=0 dh=-178 dv=0 dx=0 dy=0 dh=0 dv=0
PairPos2: "'kern' Horizontal Kerning lookup 15-2" uni067E dx=-178 dy=0 dh=-178 dv=0 dx=0 dy=0 dh=0 dv=0
PairPos2: "'kern' Horizontal Kerning lookup 15-2" uni06AF dx=-226 dy=0 dh=-226 dv=0 dx=0 dy=0 dh=0 dv=0
PairPos2: "'kern' Horizontal Kerning lookup 15-2" uniFB92 dx=-226 dy=0 dh=-226 dv=0 dx=0 dy=0 dh=0 dv=0
PairPos2: "'kern' Horizontal Kerning lookup 15-2" uniFB94 dx=-226 dy=0 dh=-226 dv=0 dx=0 dy=0 dh=0 dv=0
PairPos2: "'kern' Horizontal Kerning lookup 15-2" uni0621 dx=-178 dy=0 dh=-178 dv=0 dx=0 dy=0 dh=0 dv=0
PairPos2: "'kern' Horizontal Kerning lookup 15-2" uni0622 dx=-143 dy=0 dh=-143 dv=0 dx=0 dy=0 dh=0 dv=0
PairPos2: "'kern' Horizontal Kerning lookup 15-2" uni0623 dx=-143 dy=0 dh=-143 dv=0 dx=0 dy=0 dh=0 dv=0
PairPos2: "'kern' Horizontal Kerning lookup 15-2" uni0627 dx=-143 dy=0 dh=-143 dv=0 dx=0 dy=0 dh=0 dv=0
PairPos2: "'kern' Horizontal Kerning lookup 15-2" uni0628 dx=-178 dy=0 dh=-178 dv=0 dx=0 dy=0 dh=0 dv=0
PairPos2: "'kern' Horizontal Kerning lookup 15-2" uni0629 dx=-178 dy=0 dh=-178 dv=0 dx=0 dy=0 dh=0 dv=0
PairPos2: "'kern' Horizontal Kerning lookup 15-2" uni062A dx=-178 dy=0 dh=-178 dv=0 dx=0 dy=0 dh=0 dv=0
PairPos2: "'kern' Horizontal Kerning lookup 15-2" uniFE97 dx=-178 dy=0 dh=-178 dv=0 dx=0 dy=0 dh=0 dv=0
PairPos2: "'kern' Horizontal Kerning lookup 15-2" uni062B dx=-178 dy=0 dh=-178 dv=0 dx=0 dy=0 dh=0 dv=0
PairPos2: "'kern' Horizontal Kerning lookup 15-2" uniFE9B dx=-178 dy=0 dh=-178 dv=0 dx=0 dy=0 dh=0 dv=0
PairPos2: "'kern' Horizontal Kerning lookup 15-2" uniFE9F dx=-178 dy=0 dh=-178 dv=0 dx=0 dy=0 dh=0 dv=0
PairPos2: "'kern' Horizontal Kerning lookup 15-2" uniFEA3 dx=-178 dy=0 dh=-178 dv=0 dx=0 dy=0 dh=0 dv=0
PairPos2: "'kern' Horizontal Kerning lookup 15-2" uniFEA7 dx=-178 dy=0 dh=-178 dv=0 dx=0 dy=0 dh=0 dv=0
PairPos2: "'kern' Horizontal Kerning lookup 15-2" uni062F dx=-178 dy=0 dh=-178 dv=0 dx=0 dy=0 dh=0 dv=0
PairPos2: "'kern' Horizontal Kerning lookup 15-2" uni0630 dx=-178 dy=0 dh=-178 dv=0 dx=0 dy=0 dh=0 dv=0
PairPos2: "'kern' Horizontal Kerning lookup 15-2" uni0633 dx=-178 dy=0 dh=-178 dv=0 dx=0 dy=0 dh=0 dv=0
PairPos2: "'kern' Horizontal Kerning lookup 15-2" uniFEB3 dx=-178 dy=0 dh=-178 dv=0 dx=0 dy=0 dh=0 dv=0
PairPos2: "'kern' Horizontal Kerning lookup 15-2" uni0634 dx=-178 dy=0 dh=-178 dv=0 dx=0 dy=0 dh=0 dv=0
PairPos2: "'kern' Horizontal Kerning lookup 15-2" uniFEB7 dx=-178 dy=0 dh=-178 dv=0 dx=0 dy=0 dh=0 dv=0
PairPos2: "'kern' Horizontal Kerning lookup 15-2" uni0635 dx=-178 dy=0 dh=-178 dv=0 dx=0 dy=0 dh=0 dv=0
PairPos2: "'kern' Horizontal Kerning lookup 15-2" uniFEBB dx=-178 dy=0 dh=-178 dv=0 dx=0 dy=0 dh=0 dv=0
PairPos2: "'kern' Horizontal Kerning lookup 15-2" uni0636 dx=-178 dy=0 dh=-178 dv=0 dx=0 dy=0 dh=0 dv=0
PairPos2: "'kern' Horizontal Kerning lookup 15-2" uniFEBF dx=-178 dy=0 dh=-178 dv=0 dx=0 dy=0 dh=0 dv=0
PairPos2: "'kern' Horizontal Kerning lookup 15-2" uni0637 dx=-178 dy=0 dh=-178 dv=0 dx=0 dy=0 dh=0 dv=0
PairPos2: "'kern' Horizontal Kerning lookup 15-2" uniFEC3 dx=-178 dy=0 dh=-178 dv=0 dx=0 dy=0 dh=0 dv=0
PairPos2: "'kern' Horizontal Kerning lookup 15-2" uni0638 dx=-178 dy=0 dh=-178 dv=0 dx=0 dy=0 dh=0 dv=0
PairPos2: "'kern' Horizontal Kerning lookup 15-2" uniFEC7 dx=-178 dy=0 dh=-178 dv=0 dx=0 dy=0 dh=0 dv=0
PairPos2: "'kern' Horizontal Kerning lookup 15-2" uniFECB dx=-178 dy=0 dh=-178 dv=0 dx=0 dy=0 dh=0 dv=0
PairPos2: "'kern' Horizontal Kerning lookup 15-2" uniFECF dx=-178 dy=0 dh=-178 dv=0 dx=0 dy=0 dh=0 dv=0
PairPos2: "'kern' Horizontal Kerning lookup 15-2" uni0641 dx=-178 dy=0 dh=-178 dv=0 dx=0 dy=0 dh=0 dv=0
PairPos2: "'kern' Horizontal Kerning lookup 15-2" uniFED3 dx=-178 dy=0 dh=-178 dv=0 dx=0 dy=0 dh=0 dv=0
PairPos2: "'kern' Horizontal Kerning lookup 15-2" uni0642 dx=-60 dy=0 dh=-60 dv=0 dx=0 dy=0 dh=0 dv=0
PairPos2: "'kern' Horizontal Kerning lookup 15-2" uniFED7 dx=-178 dy=0 dh=-178 dv=0 dx=0 dy=0 dh=0 dv=0
PairPos2: "'kern' Horizontal Kerning lookup 15-2" uni0643 dx=-143 dy=0 dh=-143 dv=0 dx=0 dy=0 dh=0 dv=0
PairPos2: "'kern' Horizontal Kerning lookup 15-2" uniFEDB dx=-226 dy=0 dh=-226 dv=0 dx=0 dy=0 dh=0 dv=0
PairPos2: "'kern' Horizontal Kerning lookup 15-2" uni0644 dx=-60 dy=0 dh=-60 dv=0 dx=0 dy=0 dh=0 dv=0
PairPos2: "'kern' Horizontal Kerning lookup 15-2" uniFEDF dx=-143 dy=0 dh=-143 dv=0 dx=0 dy=0 dh=0 dv=0
PairPos2: "'kern' Horizontal Kerning lookup 15-2" uniFEFB dx=-143 dy=0 dh=-143 dv=0 dx=0 dy=0 dh=0 dv=0
PairPos2: "'kern' Horizontal Kerning lookup 15-2" uni0645 dx=-178 dy=0 dh=-178 dv=0 dx=0 dy=0 dh=0 dv=0
PairPos2: "'kern' Horizontal Kerning lookup 15-2" uniFEE3 dx=-178 dy=0 dh=-178 dv=0 dx=0 dy=0 dh=0 dv=0
PairPos2: "'kern' Horizontal Kerning lookup 15-2" uni0646 dx=-60 dy=0 dh=-60 dv=0 dx=0 dy=0 dh=0 dv=0
PairPos2: "'kern' Horizontal Kerning lookup 15-2" uni0647 dx=-178 dy=0 dh=-178 dv=0 dx=0 dy=0 dh=0 dv=0
PairPos2: "'kern' Horizontal Kerning lookup 15-2" uniFEEB dx=-178 dy=0 dh=-178 dv=0 dx=0 dy=0 dh=0 dv=0
PairPos2: "'kern' Horizontal Kerning lookup 15-2" uni0649 dx=-60 dy=0 dh=-60 dv=0 dx=0 dy=0 dh=0 dv=0
PairPos2: "'kern' Horizontal Kerning lookup 15-2" uni0626 dx=-60 dy=0 dh=-60 dv=0 dx=0 dy=0 dh=0 dv=0
PairPos2: "'kern' Horizontal Kerning lookup 15-2" uni064A dx=-60 dy=0 dh=-60 dv=0 dx=0 dy=0 dh=0 dv=0
PairPos2: "'kern' Horizontal Kerning lookup 15-2" uni06A9 dx=-226 dy=0 dh=-226 dv=0 dx=0 dy=0 dh=0 dv=0
PairPos2: "'kern' Horizontal Kerning lookup 15-2" uniFB8E dx=-226 dy=0 dh=-226 dv=0 dx=0 dy=0 dh=0 dv=0
PairPos2: "'kern' Horizontal Kerning lookup 15-2" uniFB90 dx=-226 dy=0 dh=-226 dv=0 dx=0 dy=0 dh=0 dv=0
PairPos2: "'kern' Horizontal Kerning lookup 15-2" uniFBFE dx=30 dy=0 dh=30 dv=0 dx=0 dy=0 dh=0 dv=0
PairPos2: "'kern' Horizontal Kerning lookup 15-2" uni0631 dx=-30 dy=0 dh=-30 dv=0 dx=0 dy=0 dh=0 dv=0
PairPos2: "'kern' Horizontal Kerning lookup 15-2" uni0632 dx=-30 dy=0 dh=-30 dv=0 dx=0 dy=0 dh=0 dv=0
PairPos2: "'kern' Horizontal Kerning lookup 15-2" uni0624 dx=-30 dy=0 dh=-30 dv=0 dx=0 dy=0 dh=0 dv=0
PairPos2: "'kern' Horizontal Kerning lookup 15-2" uni0648 dx=-30 dy=0 dh=-30 dv=0 dx=0 dy=0 dh=0 dv=0
PairPos2: "'kern' Horizontal Kerning lookup 15-2" uni0698 dx=-40 dy=0 dh=-40 dv=0 dx=0 dy=0 dh=0 dv=0
PairPos2: "'kern' Horizontal Kerning lookup 15-5" uni06C0 dx=-178 dy=0 dh=-178 dv=0 dx=0 dy=0 dh=0 dv=0
EndChar

StartChar: uniFEB2
Encoding: 65202 65202 189
GlifName: uniF_E_B_2
Width: 2553
GlyphClass: 2
Flags: HW
AnchorPoint: "Anchor-7" 710.902 -656.086 basechar 0
AnchorPoint: "Anchor-10" 1749.53 1008.1 basechar 0
LayerCount: 2
Fore
SplineSet
1531 0 m 0
 1482 0 1435 7 1396 21 c 1
 1377 -137 1317 -265 1213 -358 c 0
 1090 -468 923 -520 721 -520 c 0
 281 -520 38 -300 38 116 c 0
 38 265 70 416 133 568 c 2
 155 623 l 1
 211 601 l 1
 366 538 l 1
 420 516 l 1
 399 461 l 2
 352 338 330 224 330 121 c 0
 330 -117 446 -227 728 -227 c 0
 999 -227 1116 -110 1117 160 c 0
 1117 270 1090 384 1033 503 c 2
 1004 564 l 1
 1068 586 l 1
 1237 644 l 1
 1294 664 l 1
 1313 605 l 1
 1372 422 l 2
 1401 333 1441 301 1533 300 c 0
 1630 300 1658 333 1658 449 c 0
 1658 477 1655 536 1648 622 c 2
 1644 680 l 1
 1701 687 l 1
 1866 707 l 1
 1928 714 l 1
 1933 651 l 1
 1949 425 l 2
 1955 337 1986 300 2048 300 c 0
 2094 300 2127 319 2127 447 c 0
 2127 489 2124 555 2117 644 c 2
 2113 701 l 1
 2170 708 l 1
 2335 728 l 1
 2398 735 l 1
 2402 672 l 1
 2418 425 l 2
 2424 329 2457 300 2543 300 c 2
 2571 300 l 1
 2571 240 l 1
 2571 60 l 1
 2571 0 l 1
 2545 0 l 2
 2440 0 2346 27 2283 94 c 1
 2223 29 2144 0 2049 0 c 0
 1948 0 1861 34 1800 104 c 1
 1727 35 1634 0 1531 0 c 0
EndSplineSet
EndChar

StartChar: uniFEB3
Encoding: 65203 65203 190
GlifName: uniF_E_B_3
Width: 1562
GlyphClass: 2
Flags: HW
AnchorPoint: "Anchor-7" 754.902 -192.086 basechar 0
AnchorPoint: "Anchor-10" 849.53 976.1 basechar 0
LayerCount: 2
Fore
SplineSet
1153 300 m 0
 1194 300 1232 322 1232 462 c 0
 1232 525 1218 608 1190 710 c 2
 1174 768 l 1
 1232 784 l 1
 1400 829 l 1
 1456 844 l 1
 1473 789 l 2
 1507 682 1524 578 1524 477 c 0
 1524 239 1431 1 1154 0 c 0
 1053 0 965 34 904 104 c 1
 831 35 740 0 636 0 c 0
 525 0 431 32 367 102 c 1
 289 30 180 0 49 0 c 2
 -19 0 l 1
 -19 60 l 1
 -19 240 l 1
 -19 300 l 1
 51 300 l 2
 196 300 233 327 233 449 c 0
 233 480 230 538 223 622 c 2
 218 680 l 1
 276 687 l 1
 441 707 l 1
 503 714 l 1
 508 651 l 1
 524 425 l 2
 530 339 565 300 638 300 c 0
 734 300 763 334 763 449 c 0
 763 478 760 536 753 622 c 2
 749 680 l 1
 806 687 l 1
 971 707 l 1
 1033 714 l 1
 1038 651 l 1
 1054 425 l 2
 1060 337 1091 300 1153 300 c 0
EndSplineSet
EndChar

StartChar: uniFEB4
Encoding: 65204 65204 191
GlifName: uniF_E_B_4
Width: 1658
GlyphClass: 2
Flags: HW
AnchorPoint: "Anchor-10" 849.53 976.1 basechar 0
AnchorPoint: "Anchor-7" 754.902 -192.086 basechar 0
LayerCount: 2
Fore
SplineSet
367 101 m 1
 290 29 181 0 49 0 c 2
 -19 0 l 1
 -19 60 l 1
 -19 240 l 1
 -19 300 l 1
 51 300 l 2
 196 300 233 327 233 449 c 0
 233 479 230 538 223 622 c 2
 219 680 l 1
 276 687 l 1
 441 707 l 1
 503 714 l 1
 508 651 l 1
 524 425 l 2
 531 339 564 300 638 300 c 0
 735 300 763 333 763 449 c 0
 763 477 760 536 753 622 c 2
 749 680 l 1
 806 687 l 1
 971 707 l 1
 1033 714 l 1
 1038 651 l 1
 1054 425 l 2
 1060 337 1091 300 1153 300 c 0
 1199 300 1232 319 1232 447 c 0
 1232 489 1229 555 1222 644 c 2
 1218 701 l 1
 1275 708 l 1
 1440 728 l 1
 1503 735 l 1
 1507 672 l 1
 1523 425 l 2
 1529 329 1562 300 1648 300 c 2
 1676 300 l 1
 1676 240 l 1
 1676 60 l 1
 1676 0 l 1
 1650 0 l 2
 1545 0 1451 27 1388 94 c 1
 1328 29 1249 0 1154 0 c 0
 1053 0 966 34 905 104 c 1
 832 35 740 0 636 0 c 0
 525 1 431 31 367 101 c 1
EndSplineSet
EndChar

StartChar: uniFEBA
Encoding: 65210 65210 197
GlifName: uniF_E_B_A_
Width: 2610
VWidth: 3010
GlyphClass: 2
Flags: HW
AnchorPoint: "Anchor-10" 2052.53 1188.1 basechar 0
AnchorPoint: "Anchor-7" 710.902 -656.086 basechar 0
LayerCount: 2
Fore
SplineSet
1752.796875 301 m 2
 2125.00097656 301 2239 382.70703125 2239 473 c 0
 2239 550.2265625 2187.99121094 605 2104 605 c 0
 2003.28320312 605 1870.15625 512.7109375 1718.51660156 300.768554688 c 1
 1752.796875 301 l 2
1117 160.100585938 m 0
 1117 272.676757812 1088.69726562 386.73046875 1032.90136719 503.05078125 c 2
 1003.73339844 563.858398438 l 1
 1067.5234375 585.750976562 l 1
 1236.5234375 643.750976562 l 1
 1294.34667969 663.595703125 l 1
 1313.10546875 605.411132812 l 1
 1372.17578125 422.192382812 l 2
 1381.72167969 391.787109375 1391.56152344 369.639648438 1400.62988281 354.426757812 c 1
 1619.92578125 707.522460938 1847.4375 907 2096 907 c 0
 2351.16699219 907 2537 725.466796875 2537 482 c 0
 2537 418.065429688 2519.28320312 356.211914062 2493.90527344 302.850585938 c 1
 2521.82421875 301.073242188 2556.72460938 300 2600 300 c 2
 2628 300 l 5
 2628 240 l 5
 2628 60 l 5
 2628 0 l 5
 2601 0 l 2
 2452.51367188 0 2337.84570312 28.3818359375 2253.296875 83.0263671875 c 1
 2133.19042969 28.240234375 1966.74316406 0 1757 0 c 2
 1706 0 l 2
 1579.0078125 0 1476.42382812 11.14453125 1397.2421875 33.060546875 c 1
 1358.91210938 -334.838867188 1090.90625 -520 721 -520 c 0
 280.41015625 -520 38 -299.8203125 38 116 c 0
 38 264.638671875 69.9482421875 415.587890625 132.50390625 567.806640625 c 2
 155.22265625 623.088867188 l 1
 210.591796875 600.583984375 l 1
 365.591796875 537.583984375 l 1
 419.8203125 515.54296875 l 1
 399.125 460.787109375 l 2
 353.048828125 338.876953125 330 227.215820312 330 121 c 0
 330 -117.349609375 445.8359375 -227 728 -227 c 0
 996.915039062 -227 1116.09570312 -109.502929688 1117 160.100585938 c 0
EndSplineSet
EndChar

StartChar: uniFEBB
Encoding: 65211 65211 198
GlifName: uniF_E_B_B_
Width: 1654
VWidth: 2950
GlyphClass: 2
Flags: HW
AnchorPoint: "Anchor-10" 1112.53 1188.1 basechar 0
AnchorPoint: "Anchor-7" 679.209 -182.348 basechar 0
LayerCount: 2
Fore
SplineSet
831.796875 301 m 2
 1204.00097656 301 1318 382.70703125 1318 473 c 0
 1318 550.2265625 1266.99121094 605 1183 605 c 0
 1082.28320312 605 949.15625 512.7109375 797.516601562 300.768554688 c 1
 831.796875 301 l 2
486.581054688 365.41015625 m 1
 703.951171875 711.00390625 928.907226562 907 1175 907 c 0
 1430.16699219 907 1616 725.555664062 1616 481.893554688 c 0
 1614.81347656 148.583007812 1320.03710938 0 836 0 c 2
 785 0 l 2
 573.540039062 0 423.032226562 31.63671875 328.50390625 114.758789062 c 1
 253.567382812 38.34765625 157.775390625 0 20 0 c 2
 -19.333984375 0 l 5
 -18.9990234375 60.3330078125 l 5
 -17.9990234375 240.333007812 l 5
 -17.66796875 300 l 5
 20 300 l 2
 171.184570312 300 183 329.060546875 183 448 c 0
 183 504.9296875 178.09765625 583.537109375 175.072265625 645.052734375 c 2
 172.331054688 700.801757812 l 1
 227.736328125 707.55859375 l 1
 391.736328125 727.55859375 l 1
 454.262695312 735.18359375 l 1
 458.841796875 672.361328125 l 1
 476.831054688 425.506835938 l 2
 478.758789062 400.71484375 482.408203125 380.048828125 486.581054688 365.41015625 c 1
EndSplineSet
EndChar

StartChar: uniFEBC
Encoding: 65212 65212 199
GlifName: uniF_E_B_C_
Width: 1689
VWidth: 3010
GlyphClass: 2
Flags: HW
AnchorPoint: "Anchor-10" 1112.53 1188.1 basechar 0
AnchorPoint: "Anchor-7" 679.209 -182.348 basechar 0
LayerCount: 2
Fore
SplineSet
831.796875 301 m 2
 1204.00097656 301 1318 382.70703125 1318 473 c 0
 1318 550.2265625 1266.99121094 605 1183 605 c 0
 1082.28320312 605 949.15625 512.7109375 797.516601562 300.768554688 c 1
 831.796875 301 l 2
486.6015625 365.337890625 m 1
 705.08984375 712.125 929.965820312 907 1176 907 c 0
 1432.64453125 907 1616 723.826171875 1616 480 c 0
 1616 416.34765625 1598.00390625 355.936523438 1572.55273438 302.701171875 c 1
 1603.83203125 300.89453125 1636.55371094 300 1679 300 c 2
 1707 300 l 5
 1707 240 l 5
 1707 60 l 5
 1707 0 l 5
 1679 0 l 2
 1530.55664062 0 1416.59960938 28.40625 1332.2734375 83.015625 c 1
 1212.21777344 28.2529296875 1045.73046875 0 836 0 c 2
 785 0 l 2
 575.122070312 0 423.971679688 32.236328125 328.939453125 115.205078125 c 1
 254.451171875 38.9033203125 158.133789062 0 20 0 c 2
 -19 0 l 1
 -19 60 l 1
 -19 240 l 1
 -19 300 l 1
 19 300 l 2
 171.232421875 300 183 330.30859375 183 447 c 0
 183 505.999023438 178.100585938 583.473632812 175.072265625 645.052734375 c 2
 172.331054688 700.801757812 l 1
 227.736328125 707.55859375 l 1
 391.736328125 727.55859375 l 1
 454.262695312 735.18359375 l 1
 458.841796875 672.361328125 l 1
 476.831054688 425.506835938 l 2
 478.762695312 400.670898438 482.3828125 380.137695312 486.6015625 365.337890625 c 1
EndSplineSet
EndChar

StartChar: uniFEC2
Encoding: 65218 65218 205
GlifName: uniF_E_C_2
Width: 1510
VWidth: 3010
GlyphClass: 2
Flags: HW
AnchorPoint: "Anchor-7" 636.602 -178.453 basechar 0
AnchorPoint: "Anchor-10" 470.36 1516.78 basechar 0
LayerCount: 2
Fore
SplineSet
648.796875 302 m 2
 1021.00097656 302 1135 383.70703125 1135 474 c 0
 1135 551.653320312 1084.69726562 606 1001 606 c 0
 900.2265625 606 766.1484375 513.416015625 614.557617188 301.768554688 c 1
 648.796875 302 l 2
1388.0703125 302.234375 m 1
 1419.43652344 300.7578125 1455.45800781 300 1500 300 c 2
 1528 300 l 5
 1528 240 l 5
 1528 60 l 5
 1528 0 l 5
 1501 0 l 2
 1339.41894531 0 1231.52539062 31.669921875 1154.38378906 82.59375 c 1
 1034.57714844 31.224609375 856.6640625 0 653 0 c 2
 98 0 l 1
 38 0 l 1
 38 60 l 1
 38 240 l 1
 38 300 l 1
 98 300 l 1
 286.759765625 300 l 1
 302.8828125 325.446289062 318.984375 350.302734375 333 372.91796875 c 1
 333 1326 l 1
 333 1386 l 1
 393 1386 l 1
 562 1386 l 1
 622 1386 l 1
 622 1326 l 1
 622 748.405273438 l 1
 733.959960938 850.368164062 856.443359375 907 992 907 c 0
 1246.28515625 907 1432 725.39453125 1432 482 c 0
 1432 419.439453125 1413.8984375 357.462890625 1388.0703125 302.234375 c 1
EndSplineSet
EndChar

StartChar: uniFEC3
Encoding: 65219 65219 206
GlifName: uniF_E_C_3
Width: 1293
VWidth: 2950
GlyphClass: 2
Flags: HW
AnchorPoint: "Anchor-7" 481.602 -178.453 basechar 0
AnchorPoint: "Anchor-10" 292.36 1515.78 basechar 0
LayerCount: 2
Fore
SplineSet
470.796875 302 m 2
 843.000976562 302 957 383.70703125 957 474 c 0
 957 551.2265625 905.991210938 606 822 606 c 0
 721.283203125 606 588.15625 513.7109375 436.516601562 301.768554688 c 1
 470.796875 302 l 2
444 746.947265625 m 1
 557.697265625 849.5546875 682.725585938 907 819 907 c 0
 1071.23144531 907 1255 721.875976562 1255 482 c 0
 1255 148.764648438 960.981445312 0 476 0 c 2
 -19 0 l 5
 -19 60 l 5
 -19 240 l 5
 -19 300 l 5
 107.416992188 300 l 1
 123.654296875 324.760742188 140.845703125 350.51953125 155 372.5078125 c 1
 155 1326 l 1
 155 1386 l 1
 215 1386 l 1
 384 1386 l 1
 444 1386 l 1
 444 1326 l 1
 444 746.947265625 l 1
EndSplineSet
EndChar

StartChar: uniFEC4
Encoding: 65220 65220 207
GlifName: uniF_E_C_4
Width: 1332
VWidth: 3010
GlyphClass: 2
Flags: HW
AnchorPoint: "Anchor-10" 289.36 1513.78 basechar 0
AnchorPoint: "Anchor-7" 481.602 -178.453 basechar 0
LayerCount: 2
Fore
SplineSet
470.796875 302 m 2
 843.000976562 302 957 383.70703125 957 474 c 0
 957 551.2265625 905.991210938 606 822 606 c 0
 721.283203125 606 588.15625 513.7109375 436.516601562 301.768554688 c 1
 470.796875 302 l 2
1210.32128906 302.201171875 m 1
 1242.63476562 300.706054688 1277.26074219 300 1322 300 c 2
 1351 300 l 1
 1351 240 l 1
 1351 60 l 1
 1351 0 l 1
 1321 0 l 2
 1159.47753906 0 1053.80371094 32.12109375 976.322265625 83.533203125 c 1
 857.111328125 32.2001953125 679.734375 0 476 0 c 2
 -19 0 l 1
 -19 60 l 1
 -19 240 l 1
 -19 300 l 1
 108.62890625 300 l 1
 125.125976562 326.35546875 140.263671875 350.123046875 155 373.385742188 c 1
 155 1326 l 1
 155 1386 l 1
 215 1386 l 1
 384 1386 l 1
 444 1386 l 1
 444 1326 l 1
 444 746.73046875 l 1
 557.260742188 849.229492188 680.8828125 907 816 907 c 0
 1068.66015625 907 1255 723.408203125 1255 482 c 0
 1255 419.221679688 1236.18261719 356.803710938 1210.32128906 302.201171875 c 1
EndSplineSet
EndChar

StartChar: uniFECA
Encoding: 65226 65226 213
GlifName: uniF_E_C_A_
Width: 1199
VWidth: 3010
GlyphClass: 2
Flags: HW
AnchorPoint: "Anchor-7" 610.833 -770.619 basechar 0
AnchorPoint: "Anchor-10" 574.833 1226.24 basechar 0
LayerCount: 2
Fore
SplineSet
603 539 m 1
 699 593 768 637 808 668 c 1
 765 675 701 678 616 678 c 0
 521 678 449 671 411 662 c 1
 446 632 512 590 603 539 c 1
689 -663 m 0
 330.227539062 -663 38 -490.3203125 38 -138 c 0
 38 73.5478515625 160.708007812 244.051757812 336.772460938 374.8828125 c 1
 198.548828125 468.744140625 108 569.920898438 108 689 c 0
 108 913.352539062 422.399414062 966 616 966 c 0
 812.045898438 966 1114 925.087890625 1114 693 c 0
 1114 577.331054688 1012.88085938 473.306640625 861.567382812 367.420898438 c 1
 947.865234375 322.646484375 1034.75878906 300 1159 300 c 2
 1217 300 l 5
 1217 240 l 5
 1217 60 l 5
 1217 0 l 5
 1159 0 l 2
 961.02734375 0 787.416015625 71.123046875 599.221679688 198.086914062 c 1
 418.442382812 90.1669921875 325 -22.8359375 325 -138 c 0
 325 -267.30859375 431.572268659 -371.048000319 691.219726562 -372 c 0
 818.168391255 -372.465458392 931.142578125 -337.014648438 1047.6640625 -288.799804688 c 1
 1062.30175781 -359.89453125 l 1
 1097.30175781 -529.89453125 l 1
 1107 -577 l 1
 976.971679688 -635.451171875 863.566092234 -663 689 -663 c 0
EndSplineSet
EndChar

StartChar: uniFECB
Encoding: 65227 65227 214
GlifName: uniF_E_C_B_
Width: 1057
VWidth: 2950
GlyphClass: 2
Flags: HW
AnchorPoint: "Anchor-10" 550.493 1247.05 basechar 0
AnchorPoint: "Anchor-7" 484.511 -177.021 basechar 0
LayerCount: 2
Fore
SplineSet
976.834960938 149.711914062 m 2
 654.201171875 49.26953125 357.262695312 0 85 0 c 2
 -19 0 l 5
 -19 60 l 5
 -19 240 l 5
 -19 300 l 5
 163.219726562 300 l 1
 131.91796875 357.077148438 111 422.911132812 111 506 c 0
 111 764.469726562 294.655273438 989 585 989 c 0
 739.686523438 989 869.505859375 936.469726562 970.66015625 834.19140625 c 2
 999.583007812 804.947265625 l 1
 982.736328125 767.424804688 l 1
 916.736328125 620.424804688 l 1
 884.86328125 549.434570312 l 1
 824.3125 598.3125 l 2
 747.983398438 659.928710938 681.051757812 686.02734375 616.624023438 687 c 0
 483.7265625 686.620117188 401 600.469726562 401 500 c 0
 401 476.58203125 411.752929688 388.567382812 519.688476562 340.23828125 c 0
 522.41796875 338.873046875 521.603515625 339.276367188 522.819335938 338.81640625 c 2
 944.3203125 445.176757812 l 1
 1019 464.020507812 l 1
 1019 387 l 1
 1019 207 l 1
 1019 162.838867188 l 1
 976.834960938 149.711914062 l 2
EndSplineSet
EndChar

StartChar: uniFEDA
Encoding: 65242 65242 229
GlifName: uniF_E_D_A_
Width: 1931
VWidth: 2950
GlyphClass: 2
Flags: HW
AnchorPoint: "Anchor-10" 948.11 1450.05 basechar 0
AnchorPoint: "Anchor-7" 900.268 -166.468 basechar 0
LayerCount: 2
Fore
SplineSet
695 758 m 2
 756 751 808 747 849 747 c 0
 970 747 1005 771 1005 780 c 0
 1005 804 997 816 932 826 c 0
 775 851 673 940 673 1089 c 0
 673 1286 858 1370 1117 1390 c 2
 1182 1395 l 1
 1182 1330 l 1
 1182 1205 l 1
 1182 1150 l 1
 1128 1145 l 2
 977 1131 924 1093 922 1088 c 0
 922 1088 l 0
 922 1086 919 1068 994 1053 c 0
 1000 1052 1005 1051 1012 1050 c 0
 1163 1026 1253 931 1253 784 c 0
 1253 579 1057 499 866 499 c 0
 810 499 747 505 679 515 c 2
 628 522 l 1
 628 574 l 1
 628 698 l 1
 628 765 l 1
 695 758 l 2
978 300 m 2
 1450 300 1494 384 1494 530 c 2
 1494 1326 l 1
 1494 1386 l 1
 1554 1386 l 1
 1723 1386 l 1
 1783 1386 l 1
 1783 1326 l 1
 1783 532 l 2
 1783 337 1793 300 1916 300 c 2
 1950 300 l 5
 1950 240 l 5
 1950 60 l 5
 1950 0 l 5
 1918 0 l 2
 1763 0 1659 42 1602 138 c 1
 1461 26 1279 0 985 0 c 2
 840 0 l 2
 353 0 38 173 38 544 c 0
 38 642 60 736 97 822 c 2
 119 874 l 1
 173 854 l 1
 326 797 l 1
 382 776 l 1
 361 720 l 2
 342 670 333 619 333 569 c 0
 334 401 466 300 830 300 c 2
 978 300 l 2
EndSplineSet
EndChar

StartChar: uniFEDB
Encoding: 65243 65243 230
GlifName: uniF_E_D_B_
Width: 950
VWidth: 2950
GlyphClass: 2
Flags: HW
AnchorPoint: "Anchor-10" 327.533 1450.15 basechar 0
AnchorPoint: "Anchor-7" 310.991 -173.935 basechar 0
LayerCount: 2
Fore
SplineSet
331.880859375 1047.359375 m 1
 466.858398438 930.581054688 572.450195312 834.642578125 643.9921875 757.80078125 c 0
 737.518554688 656.572265625 786 540.974609375 786 416 c 0
 786 129.305664062 566.862304688 0 166 0 c 2
 -19 0 l 5
 -19 60 l 5
 -19 240 l 5
 -19 300 l 5
 165 300 l 2
 441.859375 300 491 360.172851562 491 433 c 0
 491 475.75 467.622070312 526.201171875 404.982421875 585.209960938 c 0
 304.112304688 679.157226562 213.5703125 758.6796875 136.041992188 819.733398438 c 0
 52.8603515625 884.30859375 0 961.84765625 0 1052 c 0
 0 1073.09960938 2.3076171875 1093.76660156 7.173828125 1113.67578125 c 0
 27.6025390625 1197.26855469 90 1257 177.897460938 1289.16699219 c 2
 889 1553.99707031 l 1
 889 1467.73925781 l 1
 889 1296.73925781 l 1
 889 1255 l 1
 331.880859375 1047.359375 l 1
EndSplineSet
EndChar

StartChar: uniFEDC
Encoding: 65244 65244 231
GlifName: uniF_E_D_C_
Width: 1027
VWidth: 2950
GlyphClass: 2
Flags: HW
AnchorPoint: "Anchor-10" 327.533 1450.15 basechar 0
AnchorPoint: "Anchor-7" 310.991 -173.935 basechar 0
LayerCount: 2
Fore
SplineSet
670 145 m 1
 567 42 410 0 166 0 c 2
 -19 0 l 1
 -19 60 l 1
 -19 240 l 1
 -19 300 l 1
 165 300 l 2
 442 300 491 360 491 433 c 0
 491 476 468 526 405 585 c 0
 304 679 214 759 136 820 c 0
 53 885 0 962 0 1052 c 0
 0 1073 2 1094 7 1114 c 0
 27 1198 91 1257 178 1289 c 2
 889 1554 l 1
 889 1468 l 1
 889 1297 l 1
 889 1255 l 1
 332 1047 l 1
 468 930 573 835 644 758 c 0
 705 692 751 608 785 512 c 0
 839 358 916 300 1018 300 c 2
 1045 300 l 5
 1045 240 l 5
 1045 60 l 5
 1045 0 l 5
 1018 0 l 2
 879 0 761 52 670 145 c 1
EndSplineSet
EndChar

StartChar: uniFEDE
Encoding: 65246 65246 233
GlifName: uniF_E_D_E_
Width: 1439
VWidth: 2950
GlyphClass: 2
Flags: HW
AnchorPoint: "Anchor-7" 662.902 -648.086 basechar 0
AnchorPoint: "Anchor-10" 654.908 1065.66 basechar 0
LayerCount: 2
Fore
SplineSet
390.844726562 396.060546875 m 2
 348.551757812 288.404296875 329 203.01953125 329 96 c 0
 329 -127.970703125 430.53515625 -227 675 -227 c 0
 898.091796875 -227 999 -123 999 128.045898438 c 2
 1001 1324.04589844 l 1
 1001 1326 l 1
 1001 1386 l 1
 1061 1386 l 1
 1229 1386 l 1
 1289.06054688 1386 l 1
 1289 1325.93945312 l 1
 1288 452.969726562 l 2
 1288 331 1307.37207031 300 1428 300 c 2
 1458 300 l 5
 1458 240 l 5
 1458 60 l 5
 1458 0 l 5
 1430 0 l 2
 1369.58203125 0 1321.70703125 8.474609375 1281.58203125 26.3251953125 c 1
 1243.90820312 -322.590820312 1035.25097656 -520 674 -520 c 0
 262.577148438 -520 38 -305.883789062 38 95 c 0
 38 239.240234375 67.462890625 365.873046875 124.553710938 503.928710938 c 2
 147.34375 559.040039062 l 1
 202.591796875 536.583984375 l 1
 357.591796875 473.583984375 l 1
 412.528320312 451.254882812 l 1
 390.844726562 396.060546875 l 2
EndSplineSet
EndChar

StartChar: uniFEDF
Encoding: 65247 65247 234
GlifName: uniF_E_D_F_
Width: 608
VWidth: 2950
GlyphClass: 2
Flags: HW
AnchorPoint: "Anchor-10" 365.751 1520.65 basechar 0
AnchorPoint: "Anchor-7" 259.812 -178.234 basechar 0
LayerCount: 2
Fore
SplineSet
-19 60 m 5
 -19 240 l 5
 -19 300 l 5
 61 300 l 2
 211.4375 300 231 338 231 463 c 2
 231 1326 l 1
 231 1386 l 1
 291 1386 l 1
 460 1386 l 1
 520 1386 l 1
 520 1326 l 1
 520 464 l 2
 520 176 386.280273438 0 60 0 c 2
 -19 0 l 5
 -19 60 l 5
EndSplineSet
EndChar

StartChar: uniFEE0
Encoding: 65248 65248 235
GlifName: uniF_E_E_0
Width: 670
VWidth: 2950
GlyphClass: 2
Flags: HW
AnchorPoint: "Anchor-7" 259.812 -178.234 basechar 0
AnchorPoint: "Anchor-10" 364.751 1520.65 basechar 0
LayerCount: 2
Fore
SplineSet
368.427734375 110.013671875 m 5
 293.7734375 35.517578125 188.245117188 0 43 0 c 2
 -19 0 l 1
 -19 60 l 1
 -19 240 l 1
 -19 300 l 1
 45 300 l 2
 201.018554688 300 231 342 231 449.215820312 c 2
 231 1326 l 1
 231 1386 l 1
 291 1386 l 1
 460 1386 l 1
 520 1386 l 1
 520 1326 l 1
 520 449 l 2
 520 332 544.626953125 300 658 300 c 2
 688 300 l 1
 688 240 l 1
 688 60 l 1
 688 0 l 1
 660 0 l 2
 531.537109375 0 440.614257812 38.189453125 368.427734375 110.013671875 c 5
EndSplineSet
EndChar

StartChar: uniFEE2
Encoding: 65250 65250 237
GlifName: uniF_E_E_2
Width: 1306
VWidth: 2620
GlyphClass: 2
Flags: HW
AnchorPoint: "Anchor-10" 773.952 1080.2 basechar 0
AnchorPoint: "Anchor-7" 724.983 -278.909 basechar 0
LayerCount: 2
Fore
SplineSet
52 -609 m 2
 45 -491 41 -390 41 -283 c 0
 41 45 80 362 351 440 c 1
 452 679 597 821 790 821 c 0
 1029 821 1152 645 1194 442 c 0
 1220 324 1258 300 1298 300 c 2
 1325 300 l 5
 1325 240 l 5
 1325 60 l 5
 1325 0 l 5
 1298 0 l 2
 1226 0 1155 21 1098 69 c 1
 1036 3 955 -23 856 -23 c 0
 763 -23 674 9 577 68 c 0
 547 87 515 104 478 123 c 0
 456 135 436 138 429 138 c 0
 398 137 334 59 334 -255 c 0
 334 -384 339 -495 348 -600 c 2
 353 -665 l 1
 288 -665 l 1
 112 -665 l 1
 55 -665 l 1
 52 -609 l 2
642 376 m 1
 742 304 816 275 852 275 c 0
 900 276 914 285 914 355 c 0
 914 458 862 516 790 516 c 0
 738 516 688 482 642 376 c 1
EndSplineSet
EndChar

StartChar: uniFEE3
Encoding: 65251 65251 238
GlifName: uniF_E_E_3
Width: 1048
VWidth: 2950
GlyphClass: 2
Flags: HW
AnchorPoint: "Anchor-10" 583.952 1080.2 basechar 0
AnchorPoint: "Anchor-7" 514.594 -177.063 basechar 0
LayerCount: 2
Fore
SplineSet
457.326171875 378.973632812 m 1
 531.616210938 301.3828125 592.2109375 273 641 273 c 0
 708.46484375 273 723 289.05859375 723 352 c 0
 723 463.209960938 672.092773438 515 601 515 c 0
 549.916992188 515 501.638671875 483.467773438 457.326171875 378.973632812 c 1
305.958984375 120.455078125 m 1
 225.122070312 44.12890625 129.854492188 0 23 0 c 2
 23 0 12.3330078125 0 -18 0 c 1
 -18 60 l 1
 -18 240 l 1
 -18 300 l 1
 10.6669921875 300 18 300 18 300 c 2
 93.1552734375 300 149.388671875 381.450195312 201.368164062 495.806640625 c 0
 293.307617188 698.491210938 422.990234375 821 597 821 c 0
 850.940429688 821 1010 603.467773438 1010 367 c 0
 1010 135.534179688 882.141601562 -22 655 -22 c 0
 524.124023438 -22 411.97265625 30.4423828125 305.958984375 120.455078125 c 1
EndSplineSet
EndChar

StartChar: uniFEE4
Encoding: 65252 65252 239
GlifName: uniF_E_E_4
Width: 1112
VWidth: 2950
GlyphClass: 2
Flags: HW
AnchorPoint: "Anchor-10" 583.952 1080.2 basechar 0
AnchorPoint: "Anchor-7" 534.594 -177.063 basechar 0
LayerCount: 2
Fore
SplineSet
457 379 m 5
 530 302 591 273 645 273 c 4
 712 273 726 289 726 348 c 4
 726 456 671 515 597 515 c 4
 549 515 501 483 457 379 c 5
908 71 m 5
 841 4 756 -22 653 -22 c 4
 527 -22 409 30 305 120 c 5
 224 43 130 0 23 0 c 6
 -18 0 l 1
 -18 60 l 1
 -18 240 l 1
 -18 300 l 1
 18 300 l 6
 95 300 151 384 201 496 c 4
 292 698 423 821 597 821 c 4
 837 821 963 637 1004 442 c 4
 1028 325 1068 300 1105 300 c 6
 1130 300 l 5
 1130 240 l 5
 1130 60 l 5
 1130 0 l 5
 1104 0 l 6
 1033 0 962 23 908 71 c 5
EndSplineSet
EndChar

StartChar: uniFEEA
Encoding: 65258 65258 245
GlifName: uniF_E_E_A_
Width: 1038
VWidth: 2950
GlyphClass: 2
Flags: HW
AnchorPoint: "Anchor-10" 662.464 1282.36 basechar 0
AnchorPoint: "Anchor-7" 469.642 -176.09 basechar 0
LayerCount: 2
Fore
SplineSet
38 472 m 0
 38 699 222 858 538 965 c 1
 530 1016 l 1
 586 1028 l 1
 745 1061 l 1
 808 1074 l 1
 816 1010 l 1
 898 421 l 2
 910 334 948 300 1027 300 c 2
 1057 300 l 5
 1057 240 l 5
 1057 60 l 5
 1057 0 l 5
 1023 0 l 2
 853 0 729 70 670 200 c 1
 597 155 517 132 431 132 c 0
 231 132 38 235 38 472 c 0
583 680 m 1
 391 601 332 531 332 484 c 0
 332 441 345 420 425 420 c 0
 521 420 601 479 601 542 c 0
 601 559 600 574 598 590 c 2
 583 680 l 1
EndSplineSet
EndChar

StartChar: uniFEEB
Encoding: 65259 65259 246
GlifName: uniF_E_E_B_
Width: 1369
VWidth: 2950
GlyphClass: 2
Flags: HW
AnchorPoint: "Anchor-10" 609.134 1282.79 basechar 0
AnchorPoint: "Anchor-7" 510.852 -179.953 basechar 0
LayerCount: 2
Fore
SplineSet
502.329101562 365.522460938 m 1
 579.014648438 405.196289062 614.122070312 475.159179688 615 533.358398438 c 0
 614.692382812 614.65234375 574.278320312 672 504 672 c 0
 426.44921875 672 383 605.052734375 383 538 c 0
 383 476.09375 421.391601562 404.723632812 502.329101562 365.522460938 c 1
611.265625 1094.9453125 m 2
 821.677734375 992.49609375 985.766601562 892.260742188 1104.62695312 792.985351562 c 0
 1246.39257812 674.58203125 1331 552.287109375 1331 423 c 0
 1331 159.307617188 1137.60253906 10 879 10 c 0
 746.018554688 10 585.729492188 42.5478515625 486.000976562 73.580078125 c 1
 369.64453125 33.009765625 214.938476562 0 75 0 c 2
 -19 0 l 1
 -19 60 l 1
 -19 240 l 1
 -19 300 l 1
 63 300 l 2
 99.203125 300 126 301 156.763671875 303.78515625 c 5
 112.567382812 373.81640625 93 448.584960938 93 536 c 0
 93 757.315429688 259.9921875 917.705078125 458.341796875 935.391601562 c 1
 532.443359375 1069.94433594 l 1
 559.967773438 1119.92285156 l 1
 611.265625 1094.9453125 l 2
884.38671875 606.329101562 m 1
 886.95703125 587.53125 888 571.268554688 888 553 c 0
 888 461.700195312 864.592773438 370.3203125 818.377929688 295.627929688 c 1
 830.583007812 295.190429688 840.984375 295 852 295 c 0
 987.0078125 295 1036 339.744140625 1036 420 c 0
 1036 449.991210938 988.438476562 541.951171875 884.38671875 606.329101562 c 1
EndSplineSet
EndChar

StartChar: uniFEEC
Encoding: 65260 65260 247
GlifName: uniF_E_E_C_
Width: 1002
VWidth: 2950
GlyphClass: 2
Flags: HW
AnchorPoint: "Anchor-7" 597.16 -649.603 basechar 0
AnchorPoint: "Anchor-10" 541.648 1185.04 basechar 0
LayerCount: 2
Fore
SplineSet
773 274 m 28
 673 145 486 16 450 8 c 5
 468 -51 495 -98 532 -139 c 5
 541 -65 758 300 988 300 c 6
 1021 300 l 5
 1021 240 l 5
 1021 60 l 5
 1021 0 l 5
 986 0 l 6
 858 0 793 -66 793 -270 c 4
 793 -297 794 -328 797 -356 c 6
 799 -385 l 5
 779 -405 l 5
 728 -455 l 5
 658 -523 l 5
 628 -552 l 5
 590 -534 l 6
 362 -425 221 -244 167 0 c 5
 -19 0 l 1
 -19 60 l 1
 -19 240 l 1
 -19 300 l 1
 148 300 l 5
 171 611 246 916 548 916 c 4
 754 916 870 748 870 547 c 4
 870 449 846 367 773 274 c 28
432 312 m 5
 527 347 591 437 591 547 c 4
 591 620 567 622 546 622 c 4
 506 622 453 565 432 312 c 5
EndSplineSet
EndChar

StartChar: uniFEEE
Encoding: 65262 65262 249
GlifName: uniF_E_E_E_
Width: 876
VWidth: 2142
GlyphClass: 2
Flags: HW
AnchorPoint: "Anchor-10" 430.256 1090.2 basechar 0
AnchorPoint: "Anchor-7" 415.969 -579.998 basechar 0
LayerCount: 2
Fore
SplineSet
432 840 m 0
 678 840 802 629 834 299 c 1
 894 299 l 1
 894 239 l 1
 894 60 l 1
 894 -0 l 1
 815 1 l 1
 745 -274 525 -461 179 -527 c 2
 130 -536 l 1
 112 -490 l 1
 52 -336 l 1
 26 -268 l 1
 97 -255 l 2
 326 -212 460 -117 523 0 c 1
 462 0 l 2
 200 0 38 120 38 356 c 0
 38 602 191 840 432 840 c 0
550 300 m 1
 527 489 474 535 418 535 c 0
 382 535 323 474 323 371 c 0
 323 329 338 300 452 300 c 2
 550 300 l 1
EndSplineSet
EndChar

StartChar: uniFEFB
Encoding: 65275 65275 262
GlifName: uniF_E_F_B_
Width: 1212
VWidth: 2950
GlyphClass: 3
Flags: HW
AnchorPoint: "Anchor-9" 221.642 1466.64 baselig 1
AnchorPoint: "Anchor-6" 288.021 -184.333 baselig 1
AnchorPoint: "Anchor-6" 925.078 -180.55 baselig 0
AnchorPoint: "Anchor-9" 975.01 1517.81 baselig 0
LayerCount: 2
Fore
SplineSet
182.629882812 315.512695312 m 2
 258.455078125 305.791992188 328.748046875 301 399 301 c 0
 406.969726562 301 415.741210938 301.064453125 423.420898438 301.1640625 c 5
 327 557 236.682617188 742.956054688 54.9931640625 1160.03710938 c 6
 33.03125 1210.45117188 l 5
 81.34375 1236.71386719 l 5
 230.34375 1317.71386719 l 5
 288.908203125 1349.55175781 l 5
 314.428710938 1287.97167969 l 6
 499.022460938 842.557617188 588 665 701.112304688 361.275390625 c 5
 785.669921875 413.162109375 835 514 835 698 c 2
 835 1326 l 1
 835 1386 l 1
 895 1386 l 1
 1064 1386 l 1
 1124 1386 l 1
 1124 1326 l 1
 1124 697 l 2
 1124 243 866.758789062 3 396 3 c 0
 302.354492188 3 226.165039062 9.107421875 164.631835938 19.90234375 c 2
 115 28.6103515625 l 1
 115 79 l 1
 115 256 l 1
 115 324.18359375 l 1
 182.629882812 315.512695312 l 2
EndSplineSet
PairPos2: "'kern' Horizontal Kerning lookup 15-6" uni0639 dx=-60 dy=0 dh=-60 dv=0 dx=0 dy=0 dh=0 dv=0
PairPos2: "'kern' Horizontal Kerning lookup 15-6" uni063A dx=-60 dy=0 dh=-60 dv=0 dx=0 dy=0 dh=0 dv=0
LCarets2: 1 0
Ligature2: "'rlig' Required Ligatures in Arabic lookup 16 subtable" uniFEDF uniFE8E
EndChar

StartChar: uniFEFC
Encoding: 65276 65276 263
GlifName: uniF_E_F_C_
Width: 1273
VWidth: 2950
GlyphClass: 3
Flags: HW
AnchorPoint: "Anchor-9" 974.01 1517.81 baselig 0
AnchorPoint: "Anchor-9" 221.642 1468.64 baselig 1
AnchorPoint: "Anchor-6" 925.078 -180.55 baselig 0
AnchorPoint: "Anchor-6" 288.021 -184.333 baselig 1
LayerCount: 2
Fore
SplineSet
701 361 m 1
 787 413 835 514 835 698 c 2
 835 1326 l 1
 835 1386 l 1
 895 1386 l 1
 1064 1386 l 1
 1124 1386 l 1
 1124 1326 l 1
 1124 607 l 2
 1124 360 1172 300 1257 300 c 2
 1291 300 l 5
 1291 240 l 5
 1291 60 l 5
 1291 0 l 5
 1254 0 l 2
 1106 0 997 61 936 177 c 1
 808 58 629 3 396 3 c 0
 302 3 227 9 165 20 c 2
 115 29 l 1
 115 79 l 1
 115 256 l 1
 115 324 l 1
 183 315 l 2
 257 305 328 301 398 301 c 0
 406 301 416 301 423 301 c 1
 327 557 237 743 55 1160 c 2
 33 1210 l 1
 81 1237 l 1
 230 1318 l 1
 289 1350 l 1
 314 1288 l 2
 499 843 588 665 701 361 c 1
EndSplineSet
PairPos2: "'kern' Horizontal Kerning lookup 15-6" uni0639 dx=-60 dy=0 dh=-60 dv=0 dx=0 dy=0 dh=0 dv=0
PairPos2: "'kern' Horizontal Kerning lookup 15-6" uni063A dx=-60 dy=0 dh=-60 dv=0 dx=0 dy=0 dh=0 dv=0
LCarets2: 1 0
Ligature2: "'rlig' Required Ligatures in Arabic lookup 16 subtable" uniFEE0 uniFE8E
EndChar

StartChar: arabic_dot
Encoding: 65536 -1 264
GlifName: arabic_dot
Width: 189
VWidth: 2682
GlyphClass: 2
Flags: HW
LayerCount: 2
Fore
SplineSet
-69.356223176 110.949230322 m 1
 77.0580596887 257.363513188 l 1
 91.2001953125 271.505648812 l 1
 105.342330936 257.363513188 l 1
 251.663322533 111.042521589 l 1
 265.805411562 96.9004325603 l 1
 251.663369128 82.7582969368 l 1
 106.292563554 -62.6134665619 l 1
 92.1504742287 -76.7556490773 l 1
 78.0082920101 -62.6135594547 l 1
 -68.3136575711 83.7074320832 l 1
 -82.4558857909 97.8495677067 l 1
 -69.356223176 110.949230322 l 1
EndSplineSet
EndChar

StartChar: arabic_2dots
Encoding: 65537 -1 265
GlifName: arabic_2dots
Width: 504
VWidth: 2682
GlyphClass: 2
Flags: HW
LayerCount: 2
Fore
SplineSet
-75.1421356237 112.142135624 m 1
 64.8578643763 252.142135624 l 1
 78.9497616663 266.234032914 l 1
 93.0917185071 252.192373639 l 1
 234.091718507 112.192373639 l 1
 245.540508997 100.824780245 l 1
 256.857864376 112.142135624 l 1
 396.857864376 252.142135624 l 1
 410.949761666 266.234032914 l 1
 425.091718507 252.192373639 l 1
 566.091718507 112.192373639 l 1
 580.284449084 98.1003007261 l 1
 566.192019233 83.9079245643 l 1
 425.192019233 -58.0920754357 l 1
 410.949405364 -72.4357007509 l 1
 396.757923721 -58.0414836557 l 1
 256.757923721 83.9585163443 l 1
 245.540152695 95.336541242 l 1
 234.192019233 83.9079245643 l 1
 93.1920192331 -58.0920754357 l 1
 78.9494053638 -72.4357007509 l 1
 64.7579237207 -58.0414836557 l 1
 -75.2420762793 83.9585163443 l 1
 -89.1843280784 98.0999431691 l 1
 -75.1421356237 112.142135624 l 1
EndSplineSet
EndChar

StartChar: arabic_3dots
Encoding: 65538 -1 266
GlifName: arabic_3dots
Width: 504
VWidth: 2675
GlyphClass: 2
Flags: HW
LayerCount: 2
Fore
SplineSet
96.8578643763 339.142135624 m 1
 228.857864376 471.142135624 l 1
 242.946734142 485.231005389 l 1
 257.088668764 471.195401103 l 1
 390.088668764 339.195401103 l 1
 404.337738488 325.053467241 l 1
 390.142135624 310.857864376 l 1
 257.142135624 177.857864376 l 1
 242.946532759 163.662261512 l 1
 228.804598897 177.911331236 l 1
 96.8045988972 310.911331236 l 1
 82.7689946108 325.053265858 l 1
 96.8578643763 339.142135624 l 1
268.857864376 77.1421356237 m 1
 400.857864376 209.142135624 l 1
 414.946734142 223.231005389 l 1
 429.088668764 209.195401103 l 1
 562.088668764 77.1954011028 l 1
 576.337738488 63.0534672408 l 1
 562.142135624 48.8578643763 l 1
 429.142135624 -84.1421356237 l 1
 414.946532759 -98.3377384882 l 1
 400.804598897 -84.0886687636 l 1
 268.804598897 48.9113312364 l 1
 254.768994611 63.0532658583 l 1
 268.857864376 77.1421356237 l 1
-71.1421356237 77.1421356237 m 1
 60.8578643763 209.142135624 l 1
 74.9467341417 223.231005389 l 1
 89.0886687636 209.195401103 l 1
 222.088668764 77.1954011028 l 1
 236.337738488 63.0534672408 l 1
 222.142135624 48.8578643763 l 1
 89.1421356237 -84.1421356237 l 1
 74.9465327592 -98.3377384882 l 1
 60.8045988972 -84.0886687636 l 1
 -71.1954011028 48.9113312364 l 1
 -85.2310053892 63.0532658583 l 1
 -71.1421356237 77.1421356237 l 1
EndSplineSet
EndChar

StartChar: arabic_3dots_a
Encoding: 65539 -1 267
GlifName: arabic_3dots_a
Width: 504
VWidth: 2689
GlyphClass: 2
Flags: HW
LayerCount: 2
Fore
SplineSet
97.8045988972 -119.911331236 m 1
 229.804598897 13.0886687636 l 1
 243.946532759 27.3377384882 l 1
 258.142135624 13.1421356237 l 1
 391.142135624 -119.857864376 l 1
 405.337738488 -134.053467241 l 1
 391.088668764 -148.195401103 l 1
 258.088668764 -280.195401103 l 1
 243.946734142 -294.231005389 l 1
 229.857864376 -280.142135624 l 1
 97.8578643763 -148.142135624 l 1
 83.7689946108 -134.053265858 l 1
 97.8045988972 -119.911331236 l 1
269.804598897 142.088668764 m 1
 401.804598897 275.088668764 l 1
 415.946532759 289.337738488 l 1
 430.142135624 275.142135624 l 1
 563.142135624 142.142135624 l 1
 577.337738488 127.946532759 l 1
 563.088668764 113.804598897 l 1
 430.088668764 -18.1954011028 l 1
 415.946734142 -32.2310053892 l 1
 401.857864376 -18.1421356237 l 1
 269.857864376 113.857864376 l 1
 255.768994611 127.946734142 l 1
 269.804598897 142.088668764 l 1
-70.1954011028 142.088668764 m 1
 61.8045988972 275.088668764 l 1
 75.9465327592 289.337738488 l 1
 90.1421356237 275.142135624 l 1
 223.142135624 142.142135624 l 1
 237.337738488 127.946532759 l 1
 223.088668764 113.804598897 l 1
 90.0886687636 -18.1954011028 l 1
 75.9467341417 -32.2310053892 l 1
 61.8578643763 -18.1421356237 l 1
 -70.1421356237 113.857864376 l 1
 -84.2310053892 127.946734142 l 1
 -70.1954011028 142.088668764 l 1
EndSplineSet
EndChar

StartChar: uni066E.fina
Encoding: 65540 -1 268
GlifName: uni066E_.fina
Width: 1878
VWidth: 3010
GlyphClass: 2
Flags: HW
AnchorPoint: "Anchor-10" 892.51 1485.59 basechar 0
AnchorPoint: "Anchor-7" 795.357 -199.261 basechar 0
LayerCount: 2
Fore
SplineSet
985 0 m 6
 840 0 l 2
 352.82421875 0 38 172.923828125 38 544 c 0
 38 642.030273438 60.0283203125 736.077148438 96.8876953125 821.719726562 c 2
 119.454101562 874.153320312 l 1
 172.946289062 854.224609375 l 1
 325.946289062 797.224609375 l 1
 382.29296875 776.233398438 l 1
 361.1796875 719.932617188 l 2
 342.565429688 670.294921875 333 619.234375 333 569.13671875 c 0
 333.76171875 401.45703125 466.166015625 300 830 300 c 2
 980 300 l 6
 1235.10644531 300 1383.18164062 346.263671875 1433.82128906 407.307617188 c 4
 1444.21484375 419.837890625 1455 443.518554688 1455 492 c 4
 1455 542.004882812 1451.14550781 593.775390625 1448.10742188 644.40625 c 6
 1444.73632812 700.602539062 l 5
 1500.60351562 707.541992188 l 5
 1661.60351562 727.541992188 l 5
 1724.77734375 735.389648438 l 5
 1728.87597656 671.86328125 l 5
 1744.87109375 423.926757812 l 6
 1751.24316406 328.352539062 1778.58105469 300 1873 300 c 6
 1896 300 l 5
 1896 240 l 5
 1896 60 l 5
 1896 0 l 5
 1873 0 l 6
 1739.82128906 0 1633.37011719 50.1259765625 1562.32128906 145.904296875 c 5
 1425.35644531 43.109375 1225.9375 0 985 0 c 6
EndSplineSet
EndChar

StartChar: uni06A1.fina
Encoding: 65543 -1 269
GlifName: uni06A_1.fina
Width: 1962
VWidth: 2950
GlyphClass: 2
Flags: HW
AnchorPoint: "Anchor-10" 713.816 1631.03 basechar 0
AnchorPoint: "Anchor-7" 590.121 -251.592 basechar 0
LayerCount: 2
Fore
SplineSet
1501 681 m 1
 1472 676 1390 577 1389 550 c 0
 1390 525 1468 411 1507 391 c 1
 1547 410 1624 529 1625 558 c 1
 1620 591 1537 680 1501 681 c 1
960 300 m 2
 1071 300 1145 301 1195 302 c 1
 1136 378 1101 459 1101 556 c 0
 1101 724 1278 976 1503 976 c 0
 1733 976 1914 747 1914 571 c 0
 1914 464 1875 380 1814 301 c 1
 1835 301 1859 300 1888 300 c 2
 1980 300 l 5
 1980 240 l 5
 1980 60 l 5
 1980 0 l 5
 1890 0 l 2
 1725 0 1603 33 1501 98 c 1
 1374 28 1196 0 965 0 c 2
 840 0 l 2
 353 0 38 172 38 544 c 0
 38 642 59 737 97 823 c 2
 120 875 l 1
 173 855 l 1
 327 797 l 1
 383 776 l 1
 362 720 l 2
 343 670 333 619 333 569 c 0
 334 402 466 300 830 300 c 2
 960 300 l 2
EndSplineSet
EndChar

StartChar: uni06A1.init
Encoding: 65544 -1 270
GlifName: uni06A_1.init
Width: 918
VWidth: 2950
GlyphClass: 2
Flags: HW
AnchorPoint: "Anchor-10" 447.443 1664.02 basechar 0
AnchorPoint: "Anchor-7" 367.886 -187.023 basechar 0
LayerCount: 2
Fore
SplineSet
585.426757812 380.981445312 m 5
 546.705078125 374.998046875 507.134765625 372 466 372 c 4
 230.618164062 372 81.4130859375 473.455078125 79 690.666992188 c 0
 79 930.586914062 214.1953125 1162 466 1162 c 0
 776.45703125 1162 880 819.463867188 880 522 c 0
 880 104.55078125 673.869140625 0 265 0 c 2
 -19 0 l 1
 -19 60 l 1
 -19 240 l 1
 -19 300 l 1
 276 300 l 2
 458.825195312 300 573.301757812 306.749023438 585.426757812 380.981445312 c 5
583.806640625 663.668945312 m 1
 561.110351562 790.989257812 514.497070312 866 459 866 c 0
 420.024414062 866 360 814.646484375 360 718 c 0
 360 677.887695312 372.465820312 652 479 652 c 0
 513.060546875 652 549.1953125 656.309570312 583.806640625 663.668945312 c 1
EndSplineSet
EndChar

StartChar: uni06A1.medi
Encoding: 65545 -1 271
GlifName: uni06A_1.medi
Width: 972
VWidth: 2950
GlyphClass: 2
Flags: HW
AnchorPoint: "Anchor-10" 532.544 1446.06 basechar 0
AnchorPoint: "Anchor-7" 507.517 -187.023 basechar 0
LayerCount: 2
Fore
SplineSet
511 681 m 1
 482 676 400 577 399 550 c 0
 400 525 478 411 517 391 c 1
 556 410 633 528 635 558 c 1
 630 591 546 680 511 681 c 1
825 301 m 1
 848 301 870 300 898 300 c 2
 990 300 l 5
 990 240 l 5
 990 60 l 5
 990 0 l 5
 900 0 l 2
 747 0 617 33 513 97 c 1
 405 30 272 0 114 0 c 2
 -19 0 l 1
 -19 60 l 1
 -19 240 l 1
 -19 300 l 1
 114 300 l 2
 150 300 182 300 206 301 c 1
 146 377 111 458 111 556 c 0
 111 724 287 976 512 976 c 0
 742 976 924 747 924 571 c 0
 924 471 886 382 825 301 c 1
EndSplineSet
EndChar

StartChar: uni066F.fina
Encoding: 65546 -1 272
GlifName: uni066F_.fina
Width: 1450
VWidth: 2950
GlyphClass: 2
Flags: HW
AnchorPoint: "Anchor-10" 758.297 1059.41 basechar 0
AnchorPoint: "Anchor-7" 713.744 -638.409 basechar 0
LayerCount: 2
Fore
SplineSet
399 461 m 2
 353 339 330 227 330 121 c 0
 330 -118 442 -227 728 -227 c 0
 990 -227 1073 -151 1105 1 c 1
 1023 1 l 2
 761 1 599 121 599 357 c 0
 599 604 751 841 993 841 c 0
 1233 841 1356 629 1394 300 c 1
 1468 300 l 5
 1468 240 l 5
 1468 60 l 5
 1468 -0 l 5
 1390 1 l 1
 1336 -338 1131 -520 721 -520 c 0
 277 -520 38 -300 38 116 c 0
 38 265 70 416 133 568 c 2
 155 623 l 1
 211 601 l 1
 366 538 l 1
 420 516 l 1
 399 461 l 2
1110 301 m 1
 1088 490 1035 536 979 536 c 0
 943 536 884 475 884 372 c 0
 884 330 899 301 1013 301 c 2
 1110 301 l 1
EndSplineSet
EndChar

StartChar: arabic_gaf_bar
Encoding: 65550 -1 273
GlifName: arabic_gaf_bar
Width: 751
VWidth: 2769
GlyphClass: 2
Flags: HW
LayerCount: 2
Fore
SplineSet
735 1851.37207031 m 5
 8 1580.91503906 l 5
 8 1716.62792969 l 1
 735 1987.08496094 l 1
 735 1851.37207031 l 5
EndSplineSet
EndChar

StartChar: guillemotleft
Encoding: 171 171 283
GlifName: guillemotleft
Width: 1079
VWidth: 2316
Flags: HW
LayerCount: 2
Fore
SplineSet
735.521484375 23.0791015625 m 2
 525.358398438 335.29296875 486.538085938 471.366210938 485 531.359375 c 0
 485 600.248046875 527.950195312 720.708007812 737.83984375 985.088867188 c 2
 752.853515625 1004 l 1
 777 1004 l 1
 954 1004 l 1
 1057.27636719 1004 l 1
 993.220703125 922.98828125 l 2
 790.3671875 666.438476562 755 553.515625 755 531 c 0
 755 515.559570312 793.198242188 378.349609375 993.560546875 78.798828125 c 2
 1045.59765625 1 l 1
 952 1 l 1
 777 1 l 1
 750.384765625 1 l 1
 735.521484375 23.0791015625 l 2
325.521484375 23.0791015625 m 2
 115.358398438 335.29296875 76.5380859375 471.366210938 75 531.359375 c 0
 75 600.248046875 117.950195312 720.708007812 327.83984375 985.088867188 c 2
 342.853515625 1004 l 1
 367 1004 l 1
 544 1004 l 1
 647.276367188 1004 l 1
 583.220703125 922.98828125 l 2
 380.3671875 666.438476562 345 553.515625 345 531 c 0
 345 515.559570312 383.198242188 378.349609375 583.560546875 78.798828125 c 2
 635.59765625 1 l 1
 542 1 l 1
 367 1 l 1
 340.384765625 1 l 1
 325.521484375 23.0791015625 l 2
EndSplineSet
EndChar

StartChar: guillemotright
Encoding: 187 187 284
GlifName: guillemotright
Width: 1079
VWidth: 2316
Flags: HW
LayerCount: 2
Fore
SplineSet
302 1 m 1
 127 1 l 1
 33.40234375 1 l 1
 85.439453125 78.798828125 l 2
 285.8046875 378.353515625 324 515.552734375 324 531 c 0
 324 553.515625 288.631835938 666.438476562 85.779296875 922.98828125 c 2
 21.7236328125 1004 l 1
 125 1004 l 1
 302 1004 l 1
 326.146484375 1004 l 1
 341.16015625 985.088867188 l 2
 551.047851562 720.7109375 594 600.240234375 594 531.359375 c 0
 592.461914062 471.354492188 553.645507812 335.298828125 343.478515625 23.0791015625 c 2
 328.615234375 1 l 1
 302 1 l 1
712 1 m 1
 537 1 l 1
 443.40234375 1 l 1
 495.439453125 78.798828125 l 2
 695.8046875 378.353515625 734 515.552734375 734 531 c 0
 734 553.515625 698.631835938 666.438476562 495.779296875 922.98828125 c 2
 431.723632812 1004 l 1
 535 1004 l 1
 712 1004 l 1
 736.146484375 1004 l 1
 751.16015625 985.088867188 l 2
 961.047851562 720.7109375 1004 600.240234375 1004 531.359375 c 0
 1002.46191406 471.354492188 963.645507812 335.298828125 753.478515625 23.0791015625 c 2
 738.615234375 1 l 1
 712 1 l 1
EndSplineSet
EndChar

StartChar: NameMe.302
Encoding: 65562 -1 293
GlifName: N_ameM_e.302
Width: 525
VWidth: 2950
Flags: HW
LayerCount: 2
Fore
SplineSet
271 81 m 1
 205 16 119 0 22 0 c 2
 -19 0 l 1
 -19 60 l 1
 -19 240 l 1
 -19 300 l 1
 24 300 l 6
 128 300 128 329 128 489 c 2
 128 1069 l 1
 188 1069 l 1
 357 1069 l 1
 417 1069 l 1
 417 1009 l 1
 417 489 l 2
 417 314 418 300 502 300 c 2
 544 300 l 1
 544 240 l 1
 544 60 l 1
 544 0 l 1
 505 0 l 2
 412 0 330 20 271 81 c 1
EndSplineSet
EndChar

StartChar: NameMe.303
Encoding: 65563 -1 294
GlifName: N_ameM_e.303
Width: 487
VWidth: 2950
Flags: HW
LayerCount: 2
Fore
SplineSet
-19 60 m 5
 -19 240 l 5
 -19 300 l 5
 11 300 l 2
 96.2177734375 300 110 326 110 463 c 2
 110 1162 l 1
 110 1222 l 1
 170 1222 l 1
 339 1222 l 1
 399 1222 l 1
 399 1162 l 1
 399 465 l 2
 399 194 299.385742188 0 10 0 c 2
 -19 0 l 5
 -19 60 l 5
EndSplineSet
EndChar

StartChar: NameMe.65564
Encoding: 65564 -1 297
GlifName: N_ameM_e.65564
Width: 527
VWidth: 2950
Flags: HW
AnchorPoint: "Anchor-10" 232.697 1256.11 basechar 0
AnchorPoint: "Anchor-7" 292.078 -181.903 basechar 0
LayerCount: 2
Fore
SplineSet
522 0 m 2
 249.23828125 0 88 149 88 464 c 2
 88 1127 l 1
 88 1187 l 1
 148 1187 l 1
 317 1187 l 1
 377 1187 l 1
 377 1127 l 1
 377 464 l 2
 377 322 416.758789062 300 522 300 c 2
 546 300 l 5
 546 240 l 5
 546 60 l 5
 546 0 l 5
 522 0 l 2
EndSplineSet
EndChar

StartChar: NameMe.65565
Encoding: 65565 -1 298
GlifName: N_ameM_e.65565
Width: 716
VWidth: 2957
Flags: HW
LayerCount: 2
Fore
SplineSet
117.144072948 -267.232556568 m 2
 157.387296457 -276.0664349 197.734373112 -280 233 -280 c 0
 338.106816845 -280 408.843645576 -261.718835065 445.73773843 -232.203560781 c 0
 475.420220457 -208.266075276 488 -184.949191825 488 -162 c 0
 488 -155.271584617 485.625039259 -148.912998373 462.700149874 -147.996002798 c 2
 362.773476662 -145.997469333 l 2
 279.034915008 -143.877505747 234 -97.6101601919 234 -13 c 0
 234 167.785665014 416.539386428 255.986028615 619.900994952 257.999509888 c 2
 630.72362802 258.106664671 l 1
 629.976121305 247.309345448 l 1
 620.976121305 117.309345448 l 1
 620.343785858 108.175611222 l 1
 611.1898392 108.001802108 l 2
 460.596880315 105.14244213 393.819080881 68.9715541312 379.644426418 0.579412773842 c 1
 477.294461897 -3.00407476667 l 2
 571.266004219 -5.09233126271 630 -55.5569570926 630 -151 c 0
 630 -208.250131528 603.464648173 -263.548218114 555.395229967 -316.731404214 c 0
 486.670752786 -391.703561139 376.421102224 -428 226 -428 c 0
 184.351577847 -428 139.869781171 -423.944452659 94.4629299372 -416.88116469 c 2
 84.6721824558 -415.358159526 l 1
 86.1051235462 -405.553825749 l 1
 105.105123546 -275.553825749 l 1
 106.657737442 -264.930678042 l 1
 117.144072948 -267.232556568 l 2
EndSplineSet
EndChar

StartChar: uni060D
Encoding: 1549 1549 299
Width: 828
VWidth: 4036
Flags: HW
LayerCount: 2
Fore
SplineSet
583.340820312 1446.33984375 m 1
 726.340820312 1403.33984375 l 1
 786 1385.40039062 l 5
 236.061523438 -225.098632812 l 5
 180.72265625 -208.458984375 l 1
 37.72265625 -165.458984375 l 1
 -21.9365234375 -147.51953125 l 5
 528.001953125 1462.97949219 l 5
 583.340820312 1446.33984375 l 1
EndSplineSet
EndChar

StartChar: NameMe.65541
Encoding: 65541 -1 300
Width: 592
VWidth: 2950
Flags: HW
AnchorPoint: "Anchor-10" 261.384 1411 basechar 0
AnchorPoint: "Anchor-7" 253.422 -165.625 basechar 0
LayerCount: 2
Fore
SplineSet
503.5 815.139648438 m 2
 536.393554688 704.786132812 554 579.783203125 554 476 c 4
 554 183.356445312 393.018554688 0 99 0 c 2
 -19 0 l 1
 -19 60 l 1
 -19 240 l 1
 -19 300 l 1
 99 300 l 2
 226.520507812 300 263 331.71484375 263 473 c 0
 263 544.282226562 249.459960938 653.940429688 227.684570312 743.881835938 c 2
 213.670898438 801.764648438 l 1
 271.448242188 816.208984375 l 1
 431.448242188 856.208984375 l 1
 487.110351562 870.124023438 l 1
 503.5 815.139648438 l 2
EndSplineSet
EndChar

StartChar: NameMe.65542
Encoding: 65542 -1 301
Width: 687
VWidth: 2950
Flags: HW
AnchorPoint: "Anchor-10" 265.665 1355.09 basechar 0
AnchorPoint: "Anchor-7" 320.537 -119.742 basechar 0
LayerCount: 2
Fore
SplineSet
683 0 m 2
 566.270507812 0 472.0390625 34.8408203125 406.276367188 107.27734375 c 1
 325.400390625 34.62109375 218.880859375 0 101 0 c 2
 -19 0 l 1
 -19 60 l 1
 -19 240 l 1
 -19 300 l 1
 101 300 l 2
 234.1796875 300 263 334.444335938 263 457 c 0
 263 515.87109375 258.12109375 583.059570312 255.072265625 645.052734375 c 2
 252.331054688 700.801757812 l 1
 307.736328125 707.55859375 l 1
 471.736328125 727.55859375 l 1
 534.752929688 735.244140625 l 1
 538.873046875 671.89453125 l 1
 554.87109375 425.92578125 l 2
 561.193359375 330.309570312 592.486328125 300 685 300 c 2
 706 300 l 1
 706 240 l 1
 706 60 l 1
 706 0 l 1
 683 0 l 2
EndSplineSet
EndChar

StartChar: uniFBFD.compact
Encoding: 65575 -1 321
Width: 1437
VWidth: 2703
Flags: HW
AnchorPoint: "Anchor-7" 718.902 -638.086 basechar 0
AnchorPoint: "Anchor-10" 681.6 713.22 basechar 0
LayerCount: 2
Fore
SplineSet
1421.84277344 0 m 1
 1425.79003906 -21.890625 1426 -40.275390625 1426 -54 c 0
 1426 -340.465820312 1116.34667969 -519 720 -519 c 0
 278.938476562 -519 39 -297.232421875 39 121 c 0
 39 237.201171875 62.9501953125 394.592773438 115.150390625 512.3203125 c 2
 138.774414062 565.600585938 l 1
 192.717773438 543.533203125 l 1
 346.717773438 480.533203125 l 1
 399.92578125 458.766601562 l 1
 380.453125 404.676757812 l 2
 346.662109375 310.811523438 330 217.0390625 330 120 c 0
 330 -117.192382812 443.819335938 -227 719 -227 c 0
 960.500976562 -227 1144 -112.374023438 1144 -47 c 0
 1144 -35.908203125 1134 0 1040 0 c 2
 906.755859375 0 l 2
 834 0 811.696289062 33.0869140625 800 82 c 2
 771.645507812 200.045898438 l 2
 751.744140625 282.899414062 766.1015625 300 833 300 c 2
 1455 300 l 1
 1455 240 l 1
 1455 60 l 1
 1455 0 l 1
 1421.84277344 0 l 1
EndSplineSet
EndChar

StartChar: uniFECC.compact
Encoding: 65579 -1 324
Width: 1071
VWidth: 2950
Flags: HW
AnchorPoint: "Anchor-7" 574.511 -177.021 basechar 0
AnchorPoint: "Anchor-10" 598.107 1160.89 basechar 0
LayerCount: 2
Fore
SplineSet
880 309 m 1
 924 303 976 300 1045 300 c 2
 1089 300 l 5
 1089 240 l 5
 1089 60 l 5
 1089 0 l 5
 1045 0 l 2
 852 0 717 45 607 112 c 1
 494 44 339 0 87 0 c 2
 -19 0 l 1
 -19 60 l 1
 -19 240 l 1
 -19 300 l 1
 90 300 l 2
 186 300 262 303 317 310 c 1
 195 397 107 493 107 619 c 0
 107 846 409 896 607 896 c 0
 791 896 1100 846 1100 619 c 0
 1100 507 1007 403 880 309 c 1
603 451 m 1
 673 491 766 551 806 591 c 1
 770 601 700 609 604 609 c 0
 506 609 434 601 399 591 c 1
 436 551 527 491 603 451 c 1
EndSplineSet
EndChar

